<?xml version="1.0" encoding="utf-8"?>
<!-- Generator: Adobe Illustrator 16.0.0, SVG Export Plug-In . SVG Version: 6.00 Build 0)  -->
<!DOCTYPE svg PUBLIC "-//W3C//DTD SVG 1.1//EN" "http://www.w3.org/Graphics/SVG/1.1/DTD/svg11.dtd" [
	<!ENTITY ns_extend "http://ns.adobe.com/Extensibility/1.0/">
	<!ENTITY ns_ai "http://ns.adobe.com/AdobeIllustrator/10.0/">
	<!ENTITY ns_graphs "http://ns.adobe.com/Graphs/1.0/">
	<!ENTITY ns_vars "http://ns.adobe.com/Variables/1.0/">
	<!ENTITY ns_imrep "http://ns.adobe.com/ImageReplacement/1.0/">
	<!ENTITY ns_sfw "http://ns.adobe.com/SaveForWeb/1.0/">
	<!ENTITY ns_custom "http://ns.adobe.com/GenericCustomNamespace/1.0/">
	<!ENTITY ns_adobe_xpath "http://ns.adobe.com/XPath/1.0/">
]>
<svg version="1.1" id="Layer_1" xmlns:x="&ns_extend;" xmlns:i="&ns_ai;" xmlns:graph="&ns_graphs;"
	 xmlns="http://www.w3.org/2000/svg" xmlns:xlink="http://www.w3.org/1999/xlink" x="0px" y="0px" width="432px" height="432px"
	 viewBox="0 0 432 432" enable-background="new 0 0 432 432" xml:space="preserve">
<switch>
	<g i:extraneous="self">
		<g>
			<g>
				<path fill="#E20016" stroke="#000000" stroke-width="1.625" stroke-miterlimit="10" d="M381.789,130.335
					c0,0-13.167-26.959-38.5-28.042c0,0-24.416,0.667-29.166,7.917c0,0-10.561,13.432-34.334,2.416c0,0-15.906-6.905-18.156-17.822
					c0,0,2.834-0.75,9.49,1.239c0,0,4.387,1.669,3.916-0.25c-0.406-1.655-4.822-4.739-4.916-9.167c0,0,14.166,6.916,23.5,2.084
					c0,0-16-14-15.084-22.167c0,0,26.084,15.583,35.75,8.417c0,0-14-15.5-11-26c0,0,15.083,16.416,30.25,18.25
					c0,0,1.75-13.001-4.166-18.834c-5.917-5.833,18.666,4.917,26.75,27.167c0,0,2.666,7.5,2.75-10.5c0,0-0.917-5.667,5.583,2.333
					s8.916,20.75,9.583,25.083c0,0,0.167,3.167,1.667,0.583c1.5-2.583,0.333-11.25,4.417-6.333
					C384.206,91.626,389.539,113.293,381.789,130.335z"/>
				<path opacity="0.4" d="M318.231,109.924c0,0-33.674,13.895-52.331-12.565c0,0,22.581,20.815,67.331,4.315L318.231,109.924z"/>
				<path fill="#FF8F8F" d="M294.217,91.95c-6.794,1.118-13.17,0.583-19.813-1.063C279.585,95.362,288.594,96.056,294.217,91.95z"/>
				<path fill="#FF8F8F" d="M316.467,78.638c-12.316,3.212-23.254-1.909-34-7.25C290.582,79.826,305.65,85.965,316.467,78.638z"/>
				<path fill="#FF8F8F" d="M333.404,71.075c-10.354-3.279-19.002-8.143-27.313-15.063
					C311.695,64.938,322.799,71.125,333.404,71.075z"/>
				<path fill="#FF8F8F" d="M335.467,54.263c7.678,7.009,12.924,15.013,17.375,24.313C351.665,68.588,344.815,58.386,335.467,54.263
					z"/>
				<path fill="#FF8F8F" d="M361.717,69.013c4.373,7.734,6.893,16.029,8.938,24.625c0.186-4.443-0.58-8.996-2.105-13.174
					C367.725,78.353,364.285,69.013,361.717,69.013z"/>
				<path fill="#FF8F8F" d="M378.967,90.763c2.113,8.535,3.76,17.234,3.5,26.063C384.598,108.39,382.816,98.465,378.967,90.763z"/>
			</g>
			<g>
				<g>
					<g>
						<g>
							<path fill="#6D6E70" d="M270.668,378.02c-0.576-0.004-1.103-0.578-1.25-1.367l-0.388-2.438l-1.979,1.437
								c-0.363,0.25-0.75,0.38-1.107,0.38c-0.311,0-0.574-0.098-0.763-0.283c-0.41-0.416-0.376-1.194,0.077-1.856l1.451-1.997
								l-2.424-0.384c-0.801-0.151-1.376-0.677-1.383-1.252c0.007-0.589,0.583-1.113,1.37-1.259l2.437-0.387l-1.442-1.988
								c-0.461-0.673-0.496-1.45-0.092-1.861c0.194-0.191,0.459-0.289,0.77-0.289c0.356,0,0.742,0.13,1.088,0.365l1.997,1.451
								l0.385-2.426c0.15-0.802,0.677-1.376,1.253-1.38c0.582,0.004,1.108,0.578,1.258,1.366l0.387,2.439l1.986-1.442
								c0.356-0.244,0.742-0.374,1.099-0.374c0.312,0,0.575,0.098,0.764,0.283c0.411,0.416,0.376,1.194-0.078,1.856l-1.45,1.999
								l2.426,0.384c0.801,0.149,1.376,0.675,1.38,1.253c-0.004,0.582-0.578,1.108-1.366,1.258l-2.439,0.387l1.442,1.985
								c0.461,0.672,0.497,1.45,0.092,1.862c-0.194,0.191-0.458,0.289-0.769,0.289c-0.357,0-0.744-0.13-1.089-0.367l-1.997-1.449
								l-0.384,2.425c-0.152,0.803-0.679,1.377-1.255,1.381h-0.003H270.668z M270.574,370.486c0.032-0.001,0.162-0.001,0.194,0
								c0.02-0.022,0.112-0.114,0.137-0.138c-0.001-0.031-0.001-0.161,0-0.192c-0.024-0.022-0.116-0.115-0.138-0.139
								c-0.032,0.001-0.161,0.001-0.192,0c-0.023,0.024-0.114,0.117-0.138,0.138c0.001,0.032,0.001,0.162,0,0.194
								C270.461,370.371,270.553,370.463,270.574,370.486z"/>
						</g>
						<g>
							<path d="M270.671,362.984c0.318,0.002,0.658,0.402,0.764,0.959c0.17,1.078,0.342,2.154,0.512,3.23
								c0.882-0.641,1.764-1.281,2.646-1.922c0.272-0.187,0.564-0.278,0.805-0.278c0.173,0,0.318,0.047,0.413,0.14
								c0.222,0.225,0.181,0.75-0.14,1.217c-0.641,0.883-1.281,1.766-1.922,2.648c1.077,0.17,2.153,0.34,3.23,0.512
								c0.557,0.104,0.957,0.445,0.959,0.762c-0.002,0.318-0.402,0.658-0.959,0.764c-1.077,0.17-2.153,0.342-3.23,0.512
								c0.641,0.883,1.281,1.764,1.922,2.646c0.32,0.467,0.361,0.992,0.14,1.218c-0.095,0.093-0.24,0.14-0.412,0.14
								c-0.241,0-0.533-0.092-0.806-0.279c-0.883-0.641-1.765-1.281-2.646-1.921c-0.17,1.075-0.342,2.152-0.512,3.23
								c-0.105,0.557-0.445,0.957-0.764,0.959c-0.316-0.002-0.657-0.402-0.762-0.959c-0.172-1.078-0.342-2.155-0.513-3.23
								c-0.882,0.64-1.764,1.28-2.646,1.921c-0.273,0.188-0.565,0.279-0.807,0.279c-0.172,0-0.317-0.047-0.412-0.14
								c-0.223-0.226-0.18-0.751,0.14-1.218c0.641-0.882,1.281-1.763,1.922-2.646c-1.077-0.17-2.153-0.342-3.229-0.512
								c-0.558-0.105-0.957-0.445-0.961-0.764c0.004-0.316,0.403-0.658,0.961-0.762c1.076-0.172,2.152-0.342,3.229-0.512
								c-0.641-0.883-1.281-1.766-1.922-2.648c-0.319-0.467-0.362-0.99-0.14-1.217c0.095-0.093,0.24-0.14,0.413-0.14
								c0.24,0,0.532,0.092,0.806,0.278c0.882,0.641,1.764,1.281,2.646,1.922c0.171-1.076,0.341-2.152,0.513-3.23
								C270.014,363.387,270.354,362.986,270.671,362.984 M270.671,369.52c-0.107,0-0.213-0.008-0.313-0.023
								c-0.061,0.082-0.128,0.162-0.205,0.238c-0.076,0.078-0.156,0.145-0.238,0.205c0.016,0.1,0.024,0.205,0.024,0.313
								c0,0.109-0.009,0.213-0.024,0.314c0.082,0.059,0.162,0.127,0.238,0.203c0.078,0.078,0.145,0.158,0.205,0.24
								c0.1-0.016,0.205-0.025,0.313-0.025s0.213,0.01,0.313,0.025c0.06-0.082,0.127-0.162,0.203-0.24
								c0.077-0.076,0.158-0.145,0.24-0.203c-0.016-0.102-0.025-0.205-0.025-0.314c0-0.107,0.01-0.213,0.025-0.313
								c-0.082-0.061-0.163-0.127-0.24-0.205c-0.076-0.076-0.144-0.156-0.203-0.238C270.885,369.512,270.78,369.52,270.671,369.52
								 M270.671,361.984h-0.006c-0.829,0.005-1.544,0.734-1.738,1.774l-0.263,1.647l-0.757-0.551l-0.568-0.412
								c-0.451-0.31-0.938-0.47-1.394-0.47c-0.438,0-0.834,0.151-1.114,0.427c-0.592,0.603-0.581,1.623,0.016,2.494l0.979,1.351
								c-0.54,0.086-1.08,0.172-1.619,0.258c-1.063,0.196-1.793,0.909-1.804,1.736c0.01,0.851,0.74,1.563,1.775,1.759l1.581,0.251
								l0.066,0.011l-0.317,0.437l-0.646,0.889c-0.614,0.896-0.625,1.918-0.043,2.508c0.291,0.286,0.687,0.438,1.124,0.438
								c0.457,0,0.944-0.161,1.372-0.454l1.348-0.979l0.258,1.62c0.199,1.067,0.914,1.797,1.743,1.802
								c0.84-0.005,1.556-0.734,1.752-1.772l0.262-1.649l0.202,0.146l1.125,0.816c0.448,0.309,0.936,0.47,1.393,0.47
								c0.438,0,0.833-0.151,1.113-0.427c0.594-0.604,0.582-1.625-0.017-2.496l-0.661-0.911l-0.317-0.437l0.005-0.001l1.614-0.255
								c1.068-0.202,1.798-0.918,1.803-1.746c-0.005-0.842-0.735-1.558-1.776-1.751c-0.554-0.088-1.102-0.175-1.646-0.262
								l0.964-1.328c0.613-0.894,0.625-1.915,0.042-2.506c-0.291-0.286-0.687-0.438-1.125-0.438c-0.456,0-0.942,0.161-1.37,0.453
								l-1.349,0.979l-0.257-1.618c-0.201-1.069-0.917-1.799-1.745-1.804H270.671L270.671,361.984z"/>
						</g>
					</g>
					
						<radialGradient id="SVGID_2_" cx="1656.2656" cy="80.666" r="6.957" gradientTransform="matrix(-1 0 0 -1 1926.9375 450.918)" gradientUnits="userSpaceOnUse">
						<stop  offset="0" style="stop-color:#F3F3F3"/>
						<stop  offset="0.1056" style="stop-color:#EEEEEE"/>
						<stop  offset="0.2338" style="stop-color:#DFDFDF"/>
						<stop  offset="0.3729" style="stop-color:#C7C7C7"/>
						<stop  offset="0.5" style="stop-color:#AAAAAA"/>
						<stop  offset="1" style="stop-color:#6C6C6C"/>
					</radialGradient>
					<path fill="url(#SVGID_2_)" d="M264.422,370.709l3.722,0.592l-2.221,3.054c-0.26,0.381-0.249,0.736-0.169,0.818
						c0.021,0.02,0.085,0.047,0.19,0.047c0.192,0,0.422-0.082,0.631-0.225l3.049-2.214l0.592,3.73
						c0.086,0.453,0.344,0.697,0.459,0.697c0.108,0,0.367-0.244,0.454-0.707l0.59-3.721l3.056,2.218
						c0.202,0.139,0.432,0.221,0.625,0.221c0.105,0,0.168-0.027,0.193-0.051c0.076-0.078,0.087-0.434-0.178-0.822l-2.215-3.046
						l3.73-0.592c0.453-0.086,0.697-0.346,0.697-0.459c0-0.109-0.244-0.367-0.707-0.455l-3.721-0.59l2.219-3.057
						c0.261-0.381,0.25-0.736,0.17-0.818c-0.021-0.02-0.084-0.047-0.189-0.047c-0.193,0-0.423,0.082-0.632,0.225l-3.049,2.215
						l-0.591-3.73c-0.086-0.449-0.341-0.693-0.457-0.697c-0.115,0.004-0.371,0.248-0.457,0.707l-0.59,3.721l-3.057-2.219
						c-0.201-0.139-0.432-0.221-0.623-0.221c-0.105,0-0.169,0.027-0.193,0.051c-0.076,0.078-0.088,0.434,0.178,0.822l2.215,3.049
						l-3.73,0.592c-0.453,0.086-0.697,0.344-0.698,0.459C263.716,370.363,263.96,370.623,264.422,370.709z"/>
					
						<radialGradient id="SVGID_3_" cx="1647.9512" cy="370.9063" r="8.571" gradientTransform="matrix(-1 0 0 1 1926.9375 0)" gradientUnits="userSpaceOnUse">
						<stop  offset="0" style="stop-color:#F3F3F3"/>
						<stop  offset="0.1056" style="stop-color:#EEEEEE"/>
						<stop  offset="0.2338" style="stop-color:#DFDFDF"/>
						<stop  offset="0.3729" style="stop-color:#C7C7C7"/>
						<stop  offset="0.5" style="stop-color:#AAAAAA"/>
						<stop  offset="1" style="stop-color:#6C6C6C"/>
					</radialGradient>
					<path fill="url(#SVGID_3_)" stroke="#000000" stroke-width="1.625" stroke-miterlimit="10" d="M270.736,367.732
						c0.966,0,1.806,0.541,2.234,1.334h0.001c0,0,3.797,6.128,11.359,0.33c2.362-1.813,4.129-3.102,5.442-4.018v7.131
						c-1.72,0.523-3.872,1.361-6.04,2.685c0,0-7.386,4.288-14.756-3.097c-0.479-0.461-0.779-1.109-0.779-1.828
						C268.198,368.869,269.335,367.732,270.736,367.732z"/>
					
						<radialGradient id="SVGID_4_" cx="1647.6377" cy="371.0205" r="8.1553" gradientTransform="matrix(-1 0 0 1 1926.9375 0)" gradientUnits="userSpaceOnUse">
						<stop  offset="0" style="stop-color:#F3F3F3"/>
						<stop  offset="0.1056" style="stop-color:#EEEEEE"/>
						<stop  offset="0.2338" style="stop-color:#DFDFDF"/>
						<stop  offset="0.3729" style="stop-color:#C7C7C7"/>
						<stop  offset="0.5" style="stop-color:#AAAAAA"/>
						<stop  offset="1" style="stop-color:#6C6C6C"/>
					</radialGradient>
					<path fill="url(#SVGID_4_)" stroke="#000000" stroke-width="0.25" stroke-miterlimit="10" d="M270.736,368.406
						c0.703,0,1.348,0.385,1.683,1.004c0.012,0.023,0.025,0.045,0.039,0.064c0.229,0.352,2.123,3.088,5.752,3.088
						c2.045,0,4.232-0.883,6.504-2.623c2.16-1.658,3.799-2.859,5.06-3.748v5.703c-1.785,0.529-4.056,1.396-6.354,2.802
						c-0.021,0.012-2.02,1.153-4.934,1.153c-3.266,0-6.314-1.397-9.072-4.16c-0.379-0.363-0.587-0.852-0.587-1.375
						C268.826,369.262,269.683,368.406,270.736,368.406z"/>
					
						<radialGradient id="SVGID_5_" cx="1656.291" cy="80.6602" r="1.793" gradientTransform="matrix(-1 0 0 -1 1926.9375 450.918)" gradientUnits="userSpaceOnUse">
						<stop  offset="0" style="stop-color:#F3F3F3"/>
						<stop  offset="0.1056" style="stop-color:#EEEEEE"/>
						<stop  offset="0.2338" style="stop-color:#DFDFDF"/>
						<stop  offset="0.3729" style="stop-color:#C7C7C7"/>
						<stop  offset="0.5" style="stop-color:#AAAAAA"/>
						<stop  offset="1" style="stop-color:#6C6C6C"/>
					</radialGradient>
					
						<circle fill="url(#SVGID_5_)" stroke="#000000" stroke-width="0.25" stroke-miterlimit="10" cx="270.647" cy="370.258" r="1.793"/>
					
						<radialGradient id="SVGID_6_" cx="1656.291" cy="80.6602" r="1.3672" gradientTransform="matrix(-1 0 0 -1 1926.9375 450.918)" gradientUnits="userSpaceOnUse">
						<stop  offset="0" style="stop-color:#F3F3F3"/>
						<stop  offset="0.1056" style="stop-color:#EEEEEE"/>
						<stop  offset="0.2338" style="stop-color:#DFDFDF"/>
						<stop  offset="0.3729" style="stop-color:#C7C7C7"/>
						<stop  offset="0.5" style="stop-color:#AAAAAA"/>
						<stop  offset="1" style="stop-color:#6C6C6C"/>
					</radialGradient>
					
						<circle fill="url(#SVGID_6_)" stroke="#000000" stroke-width="0.25" stroke-miterlimit="10" cx="270.647" cy="370.258" r="1.368"/>
					
						<radialGradient id="SVGID_7_" cx="1656.29" cy="80.6602" r="0.8965" gradientTransform="matrix(-1 0 0 -1 1926.9375 450.918)" gradientUnits="userSpaceOnUse">
						<stop  offset="0" style="stop-color:#F3F3F3"/>
						<stop  offset="0.1056" style="stop-color:#EEEEEE"/>
						<stop  offset="0.2338" style="stop-color:#DFDFDF"/>
						<stop  offset="0.3729" style="stop-color:#C7C7C7"/>
						<stop  offset="0.5" style="stop-color:#AAAAAA"/>
						<stop  offset="1" style="stop-color:#6C6C6C"/>
					</radialGradient>
					
						<circle fill="url(#SVGID_7_)" stroke="#000000" stroke-width="0.25" stroke-miterlimit="10" cx="270.647" cy="370.258" r="0.896"/>
				</g>
				<path opacity="0.4" d="M284.94,369.063c0,0,2.791,3.876,0.333,5.459l4.875-1.791l0.083-7.668L284.94,369.063z"/>
			</g>
			<path fill="#FAAF40" stroke="#000000" stroke-width="1.625" stroke-miterlimit="10" d="M276.733,348.756l8.833,0.583
				c-4.417,6-1.146,7.491-1.417,7.417c-0.321-0.088,18.334,18.417,18.334,18.417c5.914,6.53,13.074,2.899,13.629,2.604
				c1.464-1.131,3.295-1.812,5.288-1.812c4.786,0,8.667,3.881,8.667,8.667s-3.881,8.667-8.667,8.667c-1.933,0-3.71-0.64-5.151-1.709
				c0,0-9.891-6.291-15.703-3.604c-5.664,2.619-11,6.328-12.938,6.734l-0.001-0.014c-0.454,0.127-0.922,0.216-1.415,0.216
				c-2.923,0-5.292-2.369-5.292-5.291c0-2.923,2.369-5.292,5.292-5.292c0.191,0,13.957-0.75,9.041-6.917s-18.5-17.833-18.5-17.833
				S272.077,356.611,276.733,348.756z"/>
			<path fill="#FFC826" d="M300.923,384.925c6.128-1.857,17.207,5.942,17.207,5.942c1.221,0.906,2.674,1.417,4.268,1.578
				c-0.331,0.038-0.667,0.063-1.009,0.063c-1.933,0-3.698-0.558-5.14-1.627c0,0-9.891-6.291-15.703-3.604
				c-5.664,2.619-11,6.328-12.938,6.734c0,0-0.923,0.202-1.416,0.202c-0.559,0-1.006-0.154-1.51-0.314
				c0.35-0.057,0.652-0.122,0.652-0.122C287.272,393.372,294.794,386.782,300.923,384.925z"/>
			<path fill="#FFFFFF" stroke="#000000" stroke-width="1.625" stroke-miterlimit="10" d="M328.358,379.455
				c12.37-1.722,15.143,11.617,15.143,11.617s-10.852-6.938-15.189-1.211c0,0-2.25-1.406-2.25-5.422
				C326.062,381.002,328.358,379.455,328.358,379.455z"/>
			<path opacity="0.4" d="M328.932,379.455c0.038-0.005,0.073-0.007,0.11-0.012c-0.141,0.337-0.266,0.703-0.363,1.106
				c-0.941,3.903,0.916,5.798,0.916,5.798c5.369-4.394,13.871,4.115,14.449,4.705c-0.633-0.396-10.955-6.742-15.159-1.191
				c0,0-2.25-1.406-2.25-5.422C326.635,381.002,328.932,379.455,328.932,379.455z"/>
			<path fill="#FFFFFF" stroke="#000000" stroke-width="1.625" stroke-miterlimit="10" d="M281.38,387.464
				c-6.641-0.084-7.215,7.138-7.215,7.138s5.264-4.383,7.934-1.651c0,0,1.094-0.891,0.826-3.009
				C282.695,388.127,281.38,387.464,281.38,387.464z"/>
			<g>
				<g>
					<path d="M323.793,376.895c-0.001,0-0.45,0.527-0.974,1.491c-0.271,0.472-0.525,1.053-0.775,1.688
						c-0.223,0.642-0.441,1.342-0.552,2.063c-0.138,0.718-0.172,1.455-0.146,2.143c-0.008,0.347,0.051,0.676,0.087,0.991
						c0.027,0.317,0.091,0.611,0.161,0.88c0.109,0.548,0.27,0.983,0.386,1.289c0.11,0.308,0.174,0.483,0.174,0.483
						s-0.077-0.17-0.214-0.467c-0.142-0.296-0.34-0.721-0.496-1.265c-0.095-0.267-0.184-0.56-0.239-0.88
						c-0.063-0.318-0.152-0.652-0.174-1.008c-0.085-0.704-0.113-1.472-0.034-2.23c0.053-0.764,0.219-1.514,0.397-2.21
						c0.205-0.688,0.426-1.327,0.67-1.852c0.458-1.052,0.927-1.715,0.927-1.715L323.793,376.895z"/>
				</g>
				<g>
					<path d="M316.979,378.016c0,0-0.344,0.377-0.76,1.087c-0.403,0.696-0.865,1.703-1.004,2.788
						c-0.082,0.538-0.09,1.091-0.021,1.602c0.014,0.26,0.082,0.501,0.137,0.733c0.045,0.235,0.119,0.449,0.201,0.642
						c0.134,0.399,0.308,0.705,0.43,0.92c0.119,0.217,0.188,0.341,0.188,0.341s-0.081-0.115-0.224-0.318
						c-0.146-0.2-0.355-0.489-0.536-0.88c-0.105-0.188-0.206-0.398-0.279-0.636c-0.084-0.232-0.183-0.478-0.228-0.746
						c-0.132-0.527-0.19-1.115-0.166-1.7c-0.009-0.296,0.051-0.583,0.076-0.873c0.052-0.283,0.102-0.565,0.174-0.832
						c0.14-0.534,0.321-1.019,0.501-1.424c0.354-0.804,0.72-1.315,0.72-1.314L316.979,378.016z"/>
				</g>
				<g>
					<path d="M311.19,379.613c0,0-0.103,0.31-0.224,0.813c-0.122,0.496-0.251,1.17-0.307,1.852c-0.059,0.681-0.03,1.371,0.097,1.872
						c0.069,0.245,0.132,0.457,0.208,0.587c0.069,0.138,0.108,0.216,0.108,0.216s-0.053-0.07-0.145-0.193
						c-0.102-0.119-0.202-0.317-0.32-0.56c-0.223-0.49-0.382-1.201-0.448-1.917c-0.145-1.437,0.054-2.886,0.054-2.886
						L311.19,379.613z"/>
				</g>
				<g>
					<path d="M285.988,384.288c0.005,0.006,0.066,0.028,0.246,0.15c0.184,0.106,0.378,0.288,0.605,0.505
						c0.111,0.11,0.203,0.256,0.313,0.396c0.114,0.138,0.215,0.293,0.285,0.474c0.079,0.173,0.16,0.352,0.243,0.532
						c0.039,0.192,0.08,0.388,0.12,0.582c0.029,0.195,0.099,0.383,0.073,0.576c-0.006,0.189-0.012,0.376-0.018,0.557
						c-0.012,0.179-0.002,0.353-0.03,0.512c-0.038,0.158-0.075,0.308-0.108,0.445c-0.134,0.543-0.223,0.905-0.223,0.905
						s0.027-0.37,0.067-0.925c0.01-0.136,0.021-0.284,0.032-0.44c0.001-0.156-0.037-0.32-0.055-0.487
						c-0.022-0.167-0.046-0.339-0.069-0.514c-0.003-0.177-0.1-0.335-0.153-0.5c-0.062-0.161-0.123-0.322-0.184-0.48
						c-0.095-0.138-0.188-0.272-0.278-0.403c-0.077-0.138-0.18-0.247-0.291-0.338c-0.106-0.094-0.191-0.196-0.291-0.265
						c-0.206-0.134-0.371-0.245-0.48-0.281c-0.096-0.051-0.214-0.084-0.206-0.084L285.988,384.288z"/>
				</g>
				<g>
					<path d="M290.32,383.866c-0.016-0.015,0.175,0.254,0.345,0.656c0.099,0.193,0.169,0.441,0.26,0.693
						c0.042,0.128,0.063,0.269,0.096,0.405c0.024,0.14,0.073,0.272,0.075,0.419c0.004,0.289,0.07,0.565,0.015,0.831
						c-0.046,0.263-0.035,0.508-0.12,0.702c-0.14,0.385-0.233,0.641-0.233,0.641s0.031-0.266,0.079-0.665
						c0.037-0.193-0.029-0.429-0.042-0.666c-0.002-0.241-0.128-0.486-0.185-0.729c-0.028-0.122-0.104-0.233-0.152-0.348
						c-0.057-0.111-0.1-0.225-0.162-0.325c-0.132-0.2-0.235-0.392-0.358-0.534c-0.223-0.304-0.391-0.441-0.399-0.46L290.32,383.866z
						"/>
				</g>
				<g>
					<path d="M293.234,382.728c-0.015-0.015,0.152,0.229,0.297,0.584c0.158,0.352,0.302,0.846,0.359,1.344
						c0,0.255,0.055,0.498,0.002,0.731c-0.043,0.23-0.037,0.444-0.115,0.614c-0.128,0.334-0.213,0.557-0.213,0.557
						s0.023-0.232,0.059-0.581c0.03-0.168-0.032-0.373-0.046-0.579c-0.006-0.208-0.12-0.42-0.173-0.628
						c-0.166-0.41-0.395-0.783-0.602-1.033c-0.198-0.258-0.343-0.37-0.352-0.388L293.234,382.728z"/>
				</g>
				<g>
					<polygon points="302.4,375.667 298.261,378.275 301.783,374.88 					"/>
				</g>
				<g>
					<polygon points="299.761,372.251 295.621,374.859 299.144,371.464 					"/>
				</g>
				<g>
					<polygon points="297.12,368.835 292.981,371.443 296.503,368.048 					"/>
				</g>
				<g>
					<polygon points="293.655,366.038 290.341,368.027 293.034,365.255 					"/>
				</g>
				<g>
					<polygon points="290.476,363.259 287.7,364.611 289.897,362.442 					"/>
				</g>
			</g>
			<path opacity="0.4" d="M276.733,348.756l8.834,0.583c-4.418,6-1.146,7.491-1.417,7.417c-0.081-0.022,1.044,1.137,2.769,2.881
				c-0.075,1.933,0.172,3.174,0.172,3.174s-1.589-1.228-3.103-4.475c0,0-1.222,2.673-2.716,5.254c-2.637-2.367-4.539-4-4.539-4
				S272.077,356.611,276.733,348.756z"/>
			<path fill="#FFFFFF" stroke="#000000" stroke-width="1.625" stroke-miterlimit="10" d="M253.462,335.017
				c20.895,1.72,18.145,18.595,18.145,18.595c1.563-0.875,3.5-3.625,3.5-3.625c0.947,1.837,0.813,4.313,0.813,4.313
				c1.872-1.553,2.875-3.688,2.875-3.688c0.271,2.224,1.688,4.625,1.688,4.625c1.828-2.893,3.506-6.567,3.506-6.567
				c1.514,3.247,3.104,4.475,3.104,4.475s-2.013-10.001,7.134-17.534c9.046-7.45,11.478-10.68,11.478-10.68l-51.969,10.182"/>
			<path opacity="0.4" d="M253.462,335.069l51.754-10.14c0,0-2.432,3.229-11.478,10.68c-2.335,1.923-1.345,0.653-2.444,2.689
				c-6.488,1.637-15.387,6.013-21.49,6.49C267.869,340.479,263.425,336.021,253.462,335.069z"/>
			<path fill="#FAAF40" stroke="#000000" stroke-width="1.625" stroke-miterlimit="10" d="M231.533,391.028
				c-3.42,2.996-5.371,7.241-5.371,7.241l0.084-0.004c-0.75,1.56-2.547,2.904-4.197,3.771c-4.087,2.148-9.141,0.576-11.29-3.51
				c-2.148-4.088-0.576-9.142,3.51-11.29c1.703-0.896,3.571-1.135,5.329-0.827c0,0,6.834,1.389,9.834-5.924
				s4.438-21.313-0.25-31.438h6.375h0.564h6.375c-4.688,10.125-3.25,24.125-0.25,31.438s9.834,5.924,9.834,5.924
				c1.759-0.308,3.627-0.068,5.329,0.827c4.086,2.148,5.658,7.202,3.51,11.29c-2.148,4.086-7.203,5.658-11.29,3.51
				c-1.65-0.867-3.8-2.212-4.55-3.771v0.004c0,0-1.515-4.245-4.935-7.241H231.533z"/>
			<g>
				<path fill="#FFFFFF" stroke="#000000" stroke-width="1.625" stroke-miterlimit="10" d="M210.581,391.176
					c-11.263,0.283-11.772,12.564-11.772,12.564s8.641-7.771,13.343-3.311c0,0,1.796-1.582,1.207-5.154
					C212.853,392.214,210.581,391.176,210.581,391.176z"/>
				<path fill="#FFFFFF" stroke="#000000" stroke-width="1.625" stroke-miterlimit="10" d="M261.099,391.176
					c11.262,0.283,11.771,12.564,11.771,12.564s-8.641-7.771-13.342-3.311c0,0-1.797-1.582-1.207-5.154
					C258.825,392.214,261.099,391.176,261.099,391.176z"/>
			</g>
			<path fill="#FFFFFF" stroke="#000000" stroke-width="1.625" stroke-miterlimit="10" d="M358.599,177.684
				c-0.075,0.365-7.172,12.487-5.604,32.87c1.917,24.932,24.549,99.917-58.631,123.563c-81.093,23.054-132.51-45.087-133.54-72.243
				c-0.032-0.525-0.053-1.055-0.053-1.589c0-14.516,11.768-26.283,26.284-26.283c3.631,0,7.088,0.735,10.233,2.066h0.001
				c64.974,16.363,94.923-76.143,101.25-98.896c7.691-23.914,19.412-36.498,42.338-36.498c12.996,0,35.691,11.111,41.163,29.566
				l0.023,0.059c0,0,0.126,21.125-9.208,28.625C364.626,165.537,358.674,177.319,358.599,177.684z"/>
			<path opacity="0.4" d="M238.23,364.091c-1.871-1.553-2.611-3.813-2.611-3.813c-0.271,2.224-1.688,4.625-1.688,4.625
				c-0.645-1.021-1.271-2.139-1.811-3.159c-0.26-4.405-1.151-8.832-2.939-12.695h6.375h0.564h6.375
				c-1.569,3.389-2.439,7.213-2.808,11.074c-0.241-0.288-0.382-0.47-0.382-0.47C238.359,361.49,238.23,364.091,238.23,364.091z"/>
			<path fill="#FFFFFF" d="M263.981,336.674c-20.895,1.72-19.917,17.621-19.917,17.621c-2.375-1.208-4.757-4.309-4.757-4.309
				c-0.947,1.837-1.076,4.438-1.076,4.438c-1.872-1.553-2.611-3.813-2.611-3.813c-0.271,2.224-1.688,4.625-1.688,4.625
				c-1.828-2.893-3.506-6.567-3.506-6.567c-1.514,3.247-3.104,4.475-3.104,4.475s2.013-10.001-7.134-17.534
				c-9.045-7.45-13.52-15.436-13.52-15.436L263.981,336.674z"/>
			<g>
				<path opacity="0.4" d="M242.904,388.486c0,0,0.688,5.25,4.958,7.958s5.354,3.188,10.458,2.938l0.917,1.229
					c0,0-2.416,3.188-7.146,2.25s-5.479-3.25-5.479-3.25s-2.521-5.126-2.75-5.771S242.508,391.631,242.904,388.486z"/>
				<path opacity="0.4" d="M228.774,388.564c0,0-0.688,5.25-4.958,7.958s-5.354,3.188-10.458,2.938l-0.917,1.229
					c0,0,2.416,3.188,7.145,2.25c4.729-0.938,5.479-3.25,5.479-3.25s2.521-5.126,2.75-5.771S229.171,391.709,228.774,388.564z"/>
			</g>
			<g>
				<path fill="#FAAF40" d="M243.026,388.091c0,0-1.416,2.25,2.918,9.75c4.332,7.5-1.584,13.584-10.084,13.584h-0.043
					c-8.5,0-14.416-6.084-10.084-13.584c4.334-7.5,2.918-9.75,2.918-9.75"/>
				<path d="M243.026,388.091c0,0-0.117,0.23-0.133,0.69c-0.019,0.229-0.022,0.511,0.033,0.842c0.021,0.164,0.042,0.34,0.064,0.528
					c0.045,0.185,0.094,0.382,0.145,0.59c0.051,0.207,0.104,0.425,0.16,0.653c0.082,0.222,0.168,0.454,0.258,0.696
					c0.183,0.482,0.354,1.01,0.64,1.539c0.271,0.533,0.521,1.114,0.853,1.696c0.336,0.579,0.688,1.188,1.057,1.824
					c0.39,0.694,0.757,1.313,1.106,2.08c0.154,0.4,0.313,0.812,0.456,1.233c0.092,0.431,0.185,0.868,0.279,1.313
					c0.283,1.803-0.125,3.874-1.275,5.548c-1.13,1.684-2.847,2.983-4.759,3.765c-1.917,0.783-4.005,1.133-6.071,1.147l-1.52-0.072
					c-0.513-0.052-1.048-0.14-1.569-0.212c-0.515-0.099-1.012-0.237-1.516-0.355c-0.495-0.152-0.98-0.339-1.468-0.508
					c-1.913-0.778-3.63-2.08-4.76-3.764c-1.15-1.675-1.561-3.746-1.276-5.549c0.215-1.825,1.119-3.355,1.837-4.617
					c0.372-0.643,0.729-1.259,1.068-1.845c0.332-0.585,0.577-1.156,0.848-1.688c0.284-0.525,0.457-1.053,0.64-1.535
					c0.09-0.242,0.176-0.475,0.258-0.697c0.057-0.228,0.109-0.445,0.16-0.652c0.051-0.208,0.1-0.405,0.146-0.59
					c0.022-0.188,0.044-0.364,0.063-0.528c0.057-0.331,0.052-0.612,0.033-0.842c-0.016-0.461-0.132-0.69-0.132-0.69
					s0.145,0.213,0.22,0.679c0.048,0.231,0.088,0.52,0.073,0.861c0,0.172-0.001,0.356-0.001,0.553
					c-0.028,0.193-0.059,0.398-0.092,0.615c-0.032,0.219-0.066,0.448-0.103,0.689c-0.063,0.233-0.128,0.479-0.196,0.733
					c-0.141,0.511-0.271,1.073-0.511,1.638c-0.225,0.567-0.435,1.2-0.715,1.821c-0.297,0.608-0.609,1.248-0.935,1.915
					c-0.65,1.35-1.331,2.714-1.457,4.319c-0.165,1.575,0.271,3.23,1.251,4.601c0.976,1.382,2.483,2.434,4.172,3.12
					c0.437,0.144,0.867,0.306,1.309,0.438c0.453,0.099,0.906,0.222,1.359,0.305c0.456,0.055,0.896,0.129,1.366,0.175l1.446,0.06
					c1.89,0.004,3.777-0.3,5.48-0.977c1.69-0.684,3.197-1.738,4.173-3.12c0.979-1.37,1.418-3.026,1.252-4.602
					c-0.064-0.392-0.128-0.778-0.19-1.159c-0.111-0.364-0.222-0.724-0.33-1.076c-0.261-0.708-0.635-1.455-0.931-2.075
					c-0.33-0.675-0.646-1.321-0.945-1.936c-0.282-0.623-0.487-1.247-0.712-1.813c-0.237-0.561-0.368-1.124-0.509-1.634
					c-0.068-0.255-0.135-0.5-0.197-0.733c-0.036-0.241-0.07-0.471-0.104-0.689c-0.032-0.217-0.063-0.422-0.092-0.615
					c0-0.196,0-0.381,0-0.553c-0.016-0.342,0.025-0.63,0.073-0.861C242.883,388.303,243.026,388.091,243.026,388.091z"/>
			</g>
			<path fill="#FFFFFF" stroke="#000000" stroke-width="1.625" stroke-miterlimit="10" d="M229.732,406.61
				c0,3.741,6.106,15.501,6.106,15.501s6.106-11.76,6.106-15.501c0-3.74-2.734-7.374-6.106-7.374S229.732,402.87,229.732,406.61z"/>
			<path opacity="0.4" d="M234.688,399.271c0.175-0.02,0.35-0.035,0.527-0.035c3.372,0,6.106,3.634,6.106,7.374
				c0,3.122-4.25,11.822-5.657,14.619c1.193-4.709,2.97-12.134,2.97-14.619C238.635,403.715,236.993,400.556,234.688,399.271z"/>
			<g>
				<g>
					<path d="M227.383,401.424c0.021,0.001-0.021-0.371,0.109-1.015c0.056-0.329,0.176-0.71,0.341-1.142
						c0.173-0.428,0.401-0.904,0.734-1.371c0.312-0.483,0.733-0.947,1.215-1.399c0.494-0.436,1.047-0.875,1.691-1.208
						c0.632-0.354,1.332-0.643,2.072-0.83c0.738-0.208,1.518-0.274,2.293-0.306c0.422,0.031,0.729,0.014,1.146,0.086
						c0.399,0.045,0.78,0.122,1.147,0.219c0.741,0.187,1.441,0.477,2.073,0.83c0.645,0.333,1.197,0.771,1.691,1.208
						c0.48,0.453,0.903,0.915,1.215,1.399c0.333,0.467,0.563,0.943,0.734,1.371c0.165,0.432,0.284,0.814,0.34,1.14
						c0.131,0.644,0.09,1.021,0.109,1.018c0,0-0.024-0.09-0.07-0.257c-0.043-0.168-0.108-0.411-0.227-0.708
						c-0.21-0.6-0.646-1.406-1.343-2.214c-0.337-0.413-0.774-0.795-1.241-1.18c-0.485-0.362-1.02-0.716-1.615-0.996
						c-0.586-0.301-1.235-0.508-1.899-0.674c-0.666-0.178-1.339-0.22-2.061-0.242c-0.694,0.02-1.395,0.064-2.061,0.241
						c-0.664,0.165-1.314,0.374-1.899,0.674c-0.596,0.281-1.131,0.633-1.616,0.996c-0.466,0.385-0.904,0.766-1.241,1.18
						c-0.697,0.807-1.133,1.617-1.342,2.213c-0.117,0.293-0.185,0.543-0.227,0.71C227.407,401.335,227.383,401.424,227.383,401.424z
						"/>
				</g>
				<g>
					<path d="M229.43,394.423c0,0,0.027-0.257,0.099-0.699c0.041-0.219,0.188-0.469,0.319-0.779c0.142-0.307,0.39-0.571,0.636-0.899
						c0.296-0.263,0.603-0.594,0.994-0.836c0.392-0.243,0.801-0.521,1.281-0.682c0.461-0.213,0.965-0.344,1.484-0.451
						c0.517-0.127,1.061-0.112,1.596-0.173c0.587,0.063,1.016,0.042,1.569,0.168c0.537,0.106,1.056,0.244,1.512,0.455
						c0.479,0.16,0.89,0.438,1.28,0.681c0.392,0.243,0.698,0.573,0.994,0.837c0.245,0.327,0.497,0.597,0.634,0.896
						c0.127,0.305,0.273,0.545,0.318,0.773c0.077,0.462,0.102,0.709,0.102,0.709s-0.116-0.242-0.283-0.638
						c-0.085-0.197-0.279-0.396-0.444-0.636c-0.179-0.234-0.471-0.429-0.717-0.685c-0.313-0.192-0.617-0.438-0.99-0.619
						c-0.378-0.177-0.763-0.375-1.202-0.494c-0.425-0.172-0.875-0.227-1.321-0.321c-0.424-0.104-1.027-0.082-1.451-0.127
						c-0.477,0.048-0.965,0.018-1.426,0.122c-0.464,0.094-0.928,0.155-1.348,0.325c-0.439,0.119-0.825,0.317-1.202,0.494
						c-0.373,0.182-0.679,0.427-0.991,0.619c-0.244,0.254-0.541,0.454-0.714,0.682c-0.161,0.235-0.354,0.424-0.443,0.63
						C229.542,394.189,229.43,394.423,229.43,394.423z"/>
				</g>
				<g>
					<path d="M231.633,388.508c0,0,0.011-0.164,0.044-0.447c0.045-0.135,0.122-0.309,0.226-0.511
						c0.124-0.167,0.264-0.369,0.453-0.549c0.198-0.158,0.403-0.374,0.668-0.502c0.253-0.158,0.531-0.307,0.839-0.402
						c0.3-0.126,0.625-0.194,0.958-0.261c0.332-0.063,0.677-0.065,1.019-0.099c0.386,0.034,0.64,0.032,0.995,0.095
						c0.345,0.064,0.687,0.139,0.981,0.264c0.309,0.096,0.587,0.243,0.84,0.401c0.265,0.129,0.47,0.344,0.668,0.503
						c0.188,0.18,0.33,0.383,0.452,0.548c0.097,0.195,0.174,0.36,0.221,0.5c0.043,0.307,0.049,0.46,0.049,0.46
						s-0.083-0.136-0.228-0.373c-0.093-0.095-0.205-0.209-0.334-0.34c-0.155-0.104-0.318-0.226-0.507-0.337
						c-0.211-0.089-0.404-0.22-0.654-0.292c-0.236-0.095-0.492-0.168-0.765-0.229c-0.268-0.089-0.544-0.086-0.815-0.145
						c-0.264-0.045-0.653-0.036-0.903-0.056c-0.293,0.021-0.593,0.008-0.879,0.053c-0.284,0.056-0.577,0.06-0.84,0.146
						c-0.272,0.061-0.529,0.133-0.765,0.228c-0.25,0.073-0.444,0.203-0.655,0.293c-0.188,0.111-0.352,0.233-0.506,0.336
						c-0.11,0.122-0.237,0.222-0.329,0.328C231.723,388.369,231.633,388.508,231.633,388.508z"/>
				</g>
				<g>
					<g>
						<path d="M256.324,387.311c-0.001,0-0.45,0.527-0.974,1.491c-0.271,0.472-0.526,1.053-0.775,1.688
							c-0.224,0.642-0.442,1.342-0.552,2.063c-0.138,0.718-0.172,1.455-0.146,2.143c-0.009,0.347,0.051,0.676,0.087,0.991
							c0.027,0.317,0.09,0.611,0.161,0.88c0.108,0.548,0.27,0.983,0.386,1.289c0.11,0.308,0.174,0.483,0.174,0.483
							s-0.078-0.17-0.214-0.467c-0.142-0.296-0.34-0.721-0.496-1.265c-0.095-0.267-0.185-0.56-0.239-0.88
							c-0.064-0.318-0.152-0.652-0.174-1.008c-0.086-0.704-0.114-1.472-0.034-2.23c0.052-0.764,0.218-1.514,0.397-2.21
							c0.205-0.688,0.425-1.327,0.67-1.852c0.458-1.053,0.928-1.715,0.927-1.715L256.324,387.311z"/>
					</g>
					<g>
						<path d="M250.018,387.172c0,0-0.36,0.418-0.784,1.196c-0.417,0.764-0.88,1.861-1.026,3.032
							c-0.09,0.582-0.094,1.178-0.033,1.73c0.011,0.28,0.076,0.542,0.128,0.794c0.042,0.255,0.113,0.487,0.192,0.698
							c0.129,0.435,0.297,0.772,0.418,1.009c0.117,0.238,0.184,0.375,0.184,0.375s-0.08-0.129-0.221-0.354
							c-0.146-0.224-0.351-0.546-0.526-0.973c-0.104-0.207-0.2-0.438-0.271-0.693c-0.079-0.253-0.176-0.519-0.217-0.807
							c-0.123-0.568-0.184-1.196-0.152-1.821c0.027-1.259,0.397-2.484,0.764-3.355c0.359-0.868,0.738-1.423,0.738-1.423
							L250.018,387.172z"/>
					</g>
					<g>
						<path d="M216.156,386.713c0,0,0.47,0.663,0.928,1.715c0.244,0.524,0.464,1.163,0.669,1.852c0.18,0.696,0.345,1.446,0.397,2.21
							c0.079,0.759,0.051,1.526-0.034,2.23c-0.022,0.355-0.11,0.689-0.175,1.008c-0.055,0.32-0.144,0.613-0.238,0.88
							c-0.156,0.544-0.355,0.969-0.497,1.265c-0.136,0.297-0.213,0.467-0.213,0.467s0.063-0.176,0.174-0.483
							c0.115-0.306,0.276-0.741,0.385-1.289c0.071-0.269,0.135-0.563,0.162-0.88c0.036-0.315,0.095-0.645,0.087-0.991
							c0.024-0.688-0.009-1.425-0.146-2.143c-0.11-0.722-0.328-1.422-0.552-2.063c-0.25-0.635-0.505-1.216-0.775-1.688
							c-0.523-0.964-0.973-1.491-0.973-1.491L216.156,386.713z"/>
					</g>
					<g>
						<path d="M222.466,386.58c0,0,0.379,0.555,0.738,1.423c0.366,0.871,0.736,2.097,0.764,3.355
							c0.031,0.625-0.029,1.253-0.152,1.821c-0.041,0.288-0.138,0.554-0.217,0.807c-0.07,0.256-0.167,0.486-0.271,0.693
							c-0.176,0.427-0.381,0.749-0.526,0.973c-0.141,0.226-0.221,0.354-0.221,0.354s0.066-0.137,0.184-0.375
							c0.121-0.236,0.289-0.574,0.418-1.009c0.079-0.211,0.15-0.443,0.192-0.698c0.052-0.252,0.117-0.514,0.128-0.794
							c0.061-0.553,0.057-1.148-0.033-1.73c-0.146-1.171-0.609-2.269-1.026-3.032c-0.424-0.778-0.784-1.196-0.784-1.196
							L222.466,386.58z"/>
					</g>
				</g>
				<g>
					<path d="M232.155,378.861c0,0,0.086-0.091,0.245-0.236c0.161-0.144,0.374-0.359,0.736-0.516
						c0.172-0.082,0.364-0.202,0.573-0.262c0.207-0.061,0.427-0.128,0.658-0.183c0.459-0.14,0.968-0.123,1.471-0.179
						c0.25,0.021,0.499,0.04,0.745,0.06c0.236,0.012,0.47,0.047,0.711,0.115c0.236,0.056,0.461,0.123,0.672,0.186
						c0.211,0.061,0.391,0.176,0.562,0.257c0.169,0.089,0.325,0.158,0.446,0.258c0.117,0.103,0.22,0.191,0.304,0.265
						c0.163,0.146,0.244,0.235,0.244,0.235s-0.125-0.038-0.324-0.113c-0.097-0.038-0.214-0.084-0.348-0.137
						c-0.134-0.047-0.307-0.059-0.475-0.105c-0.174-0.031-0.352-0.094-0.548-0.117c-0.198-0.02-0.404-0.038-0.613-0.071
						c-0.201-0.045-0.438-0.037-0.678-0.049c-0.23-0.011-0.464-0.021-0.698-0.032c-0.231,0.011-0.464,0.021-0.692,0.031
						c-0.229,0.01-0.456,0.001-0.669,0.047c-0.214,0.033-0.425,0.052-0.626,0.073c-0.199,0.024-0.365,0.082-0.538,0.112
						c-0.165,0.045-0.333,0.053-0.475,0.104c-0.14,0.056-0.261,0.104-0.361,0.144C232.276,378.826,232.155,378.861,232.155,378.861z
						"/>
				</g>
				<g>
					<path d="M232.846,374.361c0,0,0.066-0.079,0.192-0.203c0.127-0.122,0.292-0.308,0.589-0.444
						c0.281-0.178,0.631-0.291,1.006-0.386c0.377-0.119,0.794-0.107,1.206-0.154c0.204,0.018,0.409,0.034,0.61,0.051
						c0.191,0.01,0.381,0.043,0.58,0.101c0.391,0.095,0.742,0.212,1.01,0.383c0.283,0.128,0.473,0.326,0.603,0.45
						c0.129,0.126,0.19,0.203,0.19,0.203s-0.106-0.026-0.271-0.081c-0.159-0.066-0.387-0.13-0.675-0.17
						c-0.276-0.07-0.6-0.094-0.938-0.13c-0.16-0.034-0.352-0.023-0.547-0.033c-0.187-0.008-0.375-0.016-0.563-0.023
						c-0.37,0.03-0.751,0.004-1.096,0.054c-0.352,0.037-0.678,0.063-0.939,0.127c-0.275,0.031-0.527,0.108-0.688,0.177
						C232.947,374.338,232.846,374.361,232.846,374.361z"/>
				</g>
				<g>
					<path d="M233.407,370.396c0,0,0.054-0.064,0.156-0.164c0.104-0.098,0.237-0.252,0.48-0.356c0.232-0.132,0.51-0.24,0.816-0.315
						c0.306-0.096,0.644-0.086,0.979-0.124c0.166,0.014,0.332,0.027,0.495,0.041c0.156,0.008,0.31,0.034,0.472,0.081
						c0.318,0.074,0.598,0.187,0.818,0.313c0.232,0.097,0.385,0.262,0.491,0.361c0.104,0.103,0.155,0.164,0.155,0.164
						s-0.086-0.021-0.22-0.066c-0.128-0.056-0.314-0.104-0.547-0.144c-0.221-0.069-0.489-0.071-0.763-0.104
						c-0.13-0.028-0.286-0.02-0.444-0.027l-0.458-0.02c-0.301,0.025-0.61,0.004-0.891,0.045c-0.285,0.032-0.556,0.037-0.766,0.102
						c-0.221,0.031-0.427,0.091-0.557,0.147C233.489,370.377,233.407,370.396,233.407,370.396z"/>
				</g>
				<g>
					<path d="M233.688,366.459c0,0,0.044-0.063,0.128-0.16c0.089-0.093,0.191-0.246,0.408-0.353
						c0.205-0.132,0.452-0.246,0.729-0.319c0.138-0.047,0.282-0.076,0.432-0.086l0.476-0.041c0.292,0.039,0.558,0.022,0.852,0.124
						c0.29,0.073,0.537,0.191,0.73,0.317c0.207,0.097,0.331,0.264,0.42,0.358c0.087,0.1,0.127,0.159,0.127,0.159
						s-0.078-0.021-0.196-0.065c-0.115-0.053-0.278-0.104-0.484-0.143c-0.194-0.068-0.432-0.073-0.671-0.104
						c-0.227-0.043-0.544-0.024-0.82-0.05l-0.378,0.02c-0.133,0.005-0.265-0.001-0.387,0.027c-0.252,0.03-0.49,0.039-0.674,0.101
						c-0.094,0.031-0.194,0.027-0.278,0.063c-0.084,0.033-0.156,0.063-0.217,0.086C233.763,366.439,233.688,366.459,233.688,366.459
						z"/>
				</g>
				<g>
					<path d="M233.407,362.521c0,0,0.054-0.064,0.156-0.164c0.104-0.098,0.237-0.252,0.48-0.356c0.232-0.132,0.51-0.24,0.816-0.315
						c0.306-0.096,0.644-0.086,0.979-0.124c0.166,0.014,0.332,0.027,0.495,0.041c0.156,0.008,0.31,0.034,0.472,0.081
						c0.318,0.074,0.598,0.187,0.818,0.313c0.232,0.097,0.385,0.262,0.491,0.361c0.104,0.103,0.155,0.164,0.155,0.164
						s-0.086-0.021-0.22-0.066c-0.128-0.056-0.314-0.104-0.547-0.144c-0.221-0.069-0.489-0.071-0.763-0.104
						c-0.13-0.028-0.286-0.02-0.444-0.027l-0.458-0.02c-0.301,0.025-0.61,0.004-0.891,0.045c-0.285,0.032-0.556,0.037-0.766,0.102
						c-0.221,0.031-0.427,0.091-0.557,0.147C233.489,362.502,233.407,362.521,233.407,362.521z"/>
				</g>
			</g>
			<g>
				<path fill="#FFFFFF" d="M263.981,336.674c-20.895,1.72-19.917,17.621-19.917,17.621c-2.375-1.208-4.757-4.309-4.757-4.309
					c-0.947,1.837-1.076,4.438-1.076,4.438c-1.872-1.553-2.611-3.813-2.611-3.813c-0.271,2.224-1.688,4.625-1.688,4.625
					c-1.828-2.893-3.506-6.567-3.506-6.567c-1.514,3.247-3.104,4.475-3.104,4.475s2.013-10.001-7.134-17.534
					c-9.045-7.45-13.52-15.436-13.52-15.436"/>
				<path d="M263.981,336.674l-3.624,0.743l-1.745,0.536c-0.573,0.198-1.166,0.31-1.714,0.575l-1.653,0.73
					c-0.563,0.212-1.063,0.547-1.573,0.853c-0.497,0.324-1.042,0.573-1.494,0.953c-0.461,0.366-0.956,0.68-1.441,1.012
					c-0.462,0.358-0.866,0.784-1.305,1.172c-0.459,0.369-0.775,0.871-1.167,1.303c-0.4,0.429-0.692,0.937-1.012,1.426
					c-0.342,0.476-0.583,1.009-0.843,1.532c-0.286,0.512-0.453,1.076-0.669,1.62c-0.207,0.547-0.332,1.123-0.489,1.686
					c-0.108,0.575-0.235,1.148-0.288,1.729c-0.075,0.57-0.098,1.183-0.089,1.701l0.027,1.495l-1.206-0.721l-0.765-0.457
					c-0.265-0.145-0.473-0.335-0.708-0.503c-0.473-0.337-0.874-0.727-1.298-1.101c-0.399-0.392-0.799-0.783-1.17-1.197
					c-0.379-0.412-0.731-0.826-1.093-1.28l1.366-0.123c-0.13,0.315-0.288,0.607-0.385,0.951c-0.121,0.326-0.201,0.677-0.29,1.022
					c-0.072,0.354-0.146,0.707-0.194,1.067c-0.056,0.354-0.094,0.731-0.117,1.064l-0.127,1.772l-1.203-1.188
					c-0.306-0.302-0.655-0.571-0.919-0.906c-0.288-0.317-0.546-0.654-0.781-1.006c-0.128-0.17-0.227-0.355-0.337-0.535
					c-0.111-0.179-0.214-0.362-0.307-0.551c-0.099-0.186-0.191-0.375-0.274-0.57c-0.09-0.197-0.163-0.38-0.247-0.616l1.579-0.154
					c-0.084,0.444-0.142,0.905-0.276,1.324c-0.107,0.434-0.26,0.842-0.405,1.254c-0.162,0.403-0.323,0.806-0.512,1.194
					c-0.183,0.396-0.375,0.766-0.601,1.166l-0.703,1.246l-0.684-1.225l-1.844-3.301c-0.302-0.553-0.631-1.093-0.891-1.665
					l-0.824-1.697l1.476,0.006l-0.682,1.258c-0.24,0.412-0.423,0.853-0.729,1.234c-0.283,0.392-0.559,0.788-0.853,1.175
					l-0.504,0.551c-0.154,0.181-0.352,0.369-0.575,0.556l-1.664,1.387l0.37-2.189c0.122-0.719,0.168-1.561,0.172-2.353
					c-0.015-0.804-0.063-1.61-0.178-2.409c-0.106-0.799-0.277-1.589-0.484-2.367l-0.352-1.156l-0.44-1.125
					c-0.139-0.379-0.348-0.727-0.517-1.092c-0.168-0.366-0.358-0.721-0.581-1.059c-0.214-0.341-0.411-0.693-0.638-1.026
					l-0.726-0.969c-0.473-0.655-1.068-1.213-1.599-1.821l-1.839-1.658l-1.895-1.67l-0.947-0.835l-0.912-0.907
					c-0.61-0.603-1.246-1.184-1.806-1.834l-1.595-2.001c-0.54-0.657-1.039-1.348-1.526-2.044c-0.493-0.692-0.996-1.375-1.444-2.097
					c-0.941-1.408-1.793-2.88-2.551-4.387c0.962,1.388,2.016,2.698,3.096,3.981c0.524,0.654,1.1,1.266,1.663,1.885
					c0.558,0.623,1.124,1.236,1.729,1.814l1.781,1.756c0.629,0.54,1.184,1.149,1.764,1.738l0.877,0.876l0.947,0.835l1.894,1.67
					l1.911,1.726c0.577,0.656,1.216,1.261,1.731,1.971l0.787,1.053c0.246,0.362,0.464,0.745,0.696,1.117
					c0.24,0.368,0.447,0.754,0.633,1.153c0.185,0.397,0.408,0.778,0.562,1.19l0.479,1.227l0.384,1.259
					c0.226,0.848,0.411,1.707,0.526,2.576c0.126,0.868,0.178,1.746,0.193,2.624c-0.009,0.891-0.043,1.736-0.203,2.679l-1.293-0.804
					c0.124-0.108,0.259-0.233,0.401-0.401l0.422-0.459c0.256-0.34,0.501-0.696,0.754-1.042c0.272-0.331,0.44-0.747,0.66-1.122
					l0.626-1.149l0.778-1.431l0.697,1.437l0.802,1.652c0.254,0.559,0.573,1.08,0.866,1.616l1.785,3.201l-1.387,0.021
					c0.179-0.318,0.369-0.68,0.531-1.033c0.172-0.354,0.316-0.719,0.463-1.081c0.129-0.366,0.266-0.731,0.355-1.1
					c0.12-0.368,0.157-0.731,0.231-1.097l0.586-2.863l0.993,2.709c0.047,0.13,0.116,0.311,0.189,0.467
					c0.069,0.163,0.147,0.323,0.232,0.481c0.078,0.161,0.165,0.317,0.261,0.469c0.094,0.151,0.177,0.312,0.285,0.452
					c0.197,0.297,0.412,0.578,0.649,0.837c0.217,0.281,0.498,0.484,0.74,0.734l-1.33,0.585c0.029-0.431,0.07-0.816,0.132-1.219
					c0.054-0.398,0.136-0.795,0.218-1.191c0.101-0.396,0.192-0.792,0.336-1.186c0.113-0.395,0.311-0.784,0.479-1.174l0.519-1.19
					l0.849,1.067c0.309,0.389,0.654,0.796,1.004,1.175c0.348,0.389,0.718,0.75,1.086,1.113c0.385,0.336,0.757,0.699,1.164,0.985
					c0.202,0.145,0.395,0.322,0.606,0.432l0.62,0.374l-1.179,0.774c-0.018-0.71,0.015-1.332,0.095-1.981
					c0.061-0.645,0.196-1.274,0.318-1.907c0.171-0.621,0.311-1.253,0.538-1.856c0.234-0.601,0.424-1.22,0.737-1.788
					c0.286-0.579,0.557-1.166,0.933-1.695c0.352-0.542,0.681-1.102,1.12-1.579c0.431-0.48,0.79-1.031,1.291-1.442
					c0.478-0.433,0.939-0.887,1.432-1.3c0.521-0.375,1.034-0.769,1.579-1.109c0.532-0.362,1.156-0.556,1.726-0.839
					c0.582-0.259,1.151-0.543,1.769-0.697l1.809-0.549c0.593-0.203,1.235-0.251,1.846-0.381l1.842-0.328L263.981,336.674z"/>
			</g>
			<g>
				<path opacity="0.4" d="M260.606,391.081c0.033-0.001,0.066,0.002,0.1,0.002c-0.163,0.282-0.314,0.595-0.445,0.94
					c-1.268,3.359,0.171,5.246,0.171,5.246c5.251-3.304,11.851,5.188,12.298,5.776c-0.518-0.422-8.973-7.196-13.318-2.737
					c0,0-1.84-1.497-1.395-5.06C258.397,392.198,260.606,391.081,260.606,391.081z"/>
				<path opacity="0.4" d="M211.072,391.081c-0.033-0.001-0.066,0.002-0.1,0.002c0.163,0.282,0.314,0.595,0.445,0.94
					c1.268,3.359-0.171,5.246-0.171,5.246c-5.251-3.304-11.851,5.188-12.298,5.776c0.518-0.422,8.973-7.196,13.318-2.737
					c0,0,1.84-1.497,1.395-5.06C213.281,392.198,211.072,391.081,211.072,391.081z"/>
			</g>
			<path opacity="0.4" d="M281.064,387.987c0.628,1.639,0.092,2.671,0.092,2.671c-2.693-1.616-6.19,2.515-6.427,2.801
				c0.271-0.205,4.715-3.496,6.93-1.318c0,0,0.967-0.729,0.768-2.465C282.256,388.189,280.999,387.818,281.064,387.987z"/>
			<path opacity="0.2" d="M335.376,270.433c4.285,0.851,7.497,3.674,9.322,7.487c2.547-7.873,2.605-16.877-0.047-24.63
				c4.061,9.534,3.896,20.361,0.151,29.978c-0.894-3.443-3.36-8.282-6.967-9.912c0.989,13.842-6.008,28.521-20.981,30.231
				c-0.086,0.014-0.184,0.027-0.303,0.04C331.061,299.025,336.516,284.68,335.376,270.433z"/>
			<path fill="#C42C23" stroke="#000000" stroke-width="1.625" stroke-miterlimit="10" d="M77.611,189.28l-0.014-0.143
				c-6.353-19.552-2.356-43.932,12.513-64.269c22.479-30.748,61.3-40.614,86.71-22.037c15.88,11.61,22.763,31.584,20.203,52.438
				c0,0-0.125,6.821-7.958,23.488c-7.833,16.666-21.667,49.832,31.833,58.666c0,0-4.833,7.334-19.666,6.834
				c0,0,0.834,2.666,3.167,3.5c0,0-5.833,7.333-16,8.833c0,0,2,5.166,11.333,5.667c0,0-2.75,3.354-7.313,2.979
				c0,0,2.5,7.188,9.688,12.063c0,0-5.375,0.813-8.938-0.875c0,0,4.313,6.5,4,7.875c0,0-2.313-1.313-7.125-2.5
				c0,0,3.438,6.625,2.5,11.125c0,0-1.75,0.625-4.875-1.938s-3.875-5-3.875-5c-1,5.375,2.188,11.375,2.188,11.375
				c-8.563-2.063-10.438-7.938-10.438-7.938c-0.813,3.063,0.75,6.375,0.75,6.375s-20.479-30.375-24.938-23.375
				c0,0-0.75,1.25,0.063,3.125c0,0-9.188-7.125-0.109-27.622c-0.133-1.91-12.745,12.497-9.579,27.997c0,0-20.583-13.666-2.833-44.5
				c0,0-13.75,13.916-12.167,31.5c0,0-7.583-10.583-5-22.333c0,0-3.999,8.083-4.833,15.25c0,0-21.166-29.542,6.166-56.001
				c0,0-11.707,5.834-18.105,24.061c-1.346-1.356-2.945-3.665-3.227-7.135c0,0-3.064,5.162,1.261,12.166
				c-3.643,10.646-5.075,24.098-0.679,40.158c0,0-21.833-39.666-1.583-72.333c0,0-18.172,11.563-20.753,45.982
				c-1.432-2.903-3.107-7.027-2.913-10.14c0,0-1.833,6.324,2.619,16.877c-0.066,5.034,0.187,10.494,0.848,16.412
				c-1.593-1.768-3.369-4.074-3.967-6.123c0,0,0.01,6,4.663,11.504c1.572,10.723,4.426,22.834,9.004,36.487
				C90.232,307.757,41.278,245.113,77.611,189.28z"/>
			<g>
				<path d="M100.011,196.369c0,0,1.11-1.705,3.015-3.998c0.493-0.563,0.996-1.197,1.585-1.819c0.573-0.635,1.188-1.296,1.855-1.95
					c0.644-0.675,1.365-1.317,2.084-1.981c0.717-0.667,1.51-1.273,2.266-1.917c0.804-0.587,1.589-1.198,2.403-1.74
					c0.838-0.506,1.615-1.079,2.45-1.496c0.836-0.411,1.592-0.906,2.399-1.197c0.794-0.31,1.516-0.674,2.23-0.88
					c0.711-0.21,1.364-0.404,1.941-0.575c0.581-0.156,1.108-0.205,1.531-0.29c0.85-0.145,1.335-0.228,1.335-0.228
					s-0.48,0.107-1.322,0.296c-0.417,0.106-0.936,0.181-1.505,0.366c-0.563,0.199-1.2,0.424-1.894,0.669
					c-0.694,0.239-1.392,0.638-2.157,0.982c-0.776,0.326-1.5,0.855-2.299,1.3c-0.797,0.45-1.535,1.056-2.329,1.592
					c-0.771,0.573-1.511,1.213-2.267,1.827c-0.71,0.671-1.454,1.302-2.123,1.992c-0.671,0.688-1.342,1.351-1.939,2.044
					c-0.619,0.672-1.186,1.349-1.714,1.999c-0.544,0.636-1.003,1.283-1.456,1.855c-1.753,2.352-2.712,4.008-2.712,4.009
					L100.011,196.369z"/>
			</g>
			<path fill="#FFFFFF" stroke="#000000" stroke-width="1.625" stroke-miterlimit="10" d="M123.731,150.424"/>
			<g>
				<path d="M119.44,145.697c0,0-0.257-0.137-0.739-0.394c-0.243-0.124-0.534-0.296-0.892-0.463
					c-0.359-0.161-0.772-0.346-1.234-0.553c-0.463-0.203-0.999-0.375-1.568-0.591c-0.569-0.199-1.231-0.359-1.876-0.55
					c-0.698-0.125-1.441-0.258-2.225-0.399c-0.393-0.087-0.792-0.126-1.201-0.142c-0.408-0.027-0.825-0.055-1.251-0.083
					c-0.846-0.106-1.748,0.014-2.669,0.043c-0.928-0.004-1.864,0.239-2.833,0.38c-0.242,0.043-0.487,0.076-0.729,0.128l-0.722,0.207
					c-0.484,0.138-0.974,0.278-1.469,0.419c-0.979,0.312-1.944,0.744-2.945,1.115c-0.943,0.506-1.943,0.945-2.879,1.525
					c-0.913,0.618-1.904,1.143-2.76,1.878l-1.333,1.044c-0.442,0.353-0.834,0.769-1.255,1.151c-0.409,0.396-0.843,0.768-1.233,1.185
					l-1.14,1.281c-1.541,1.691-2.858,3.575-4.04,5.495c-0.595,0.958-1.064,1.979-1.596,2.949c-0.481,0.995-0.87,2.02-1.301,3.006
					c-0.393,1.002-0.669,2.027-1.023,3.002c-0.329,0.95-0.542,1.992-0.808,2.946c-0.188,0.966-0.386,1.901-0.532,2.819
					c-0.104,0.925-0.26,1.815-0.312,2.679c-0.134,1.726-0.158,3.314-0.131,4.724c0.04,0.705,0.077,1.364,0.111,1.974
					c0.053,0.608,0.137,1.164,0.194,1.668c0.102,1.012,0.285,1.791,0.371,2.33c0.097,0.538,0.149,0.824,0.149,0.824
					s-0.075-0.281-0.215-0.809c-0.125-0.531-0.39-1.295-0.545-2.306c-0.088-0.503-0.206-1.058-0.297-1.668
					c-0.072-0.613-0.15-1.276-0.233-1.984c-0.072-0.71-0.085-1.471-0.134-2.272c-0.049-0.802,0.021-1.645,0.028-2.526
					c0.021-0.881,0.145-1.792,0.217-2.741c0.114-0.944,0.284-1.923,0.443-2.926c0.236-0.982,0.395-1.968,0.709-3.017
					c0.311-1.016,0.611-2.063,0.993-3.1c0.429-1.019,0.817-2.077,1.301-3.107c0.533-1.006,1.005-2.063,1.606-3.058
					c1.195-1.994,2.529-3.959,4.107-5.728l1.197-1.312c0.409-0.427,0.864-0.808,1.292-1.213c0.441-0.391,0.853-0.814,1.316-1.176
					c0.467-0.357,0.932-0.712,1.396-1.066c0.897-0.749,1.934-1.288,2.888-1.914c0.979-0.589,2.025-1.036,3.011-1.547
					c1.048-0.372,2.05-0.826,3.084-1.101c0.52-0.128,1.034-0.255,1.542-0.38l0.756-0.186c0.254-0.045,0.51-0.071,0.762-0.107
					c1.013-0.111,1.986-0.323,2.948-0.286c0.958,0.003,1.878-0.084,2.769,0.057c0.444,0.047,0.878,0.092,1.302,0.137
					c0.427,0.035,0.837,0.088,1.218,0.201c0.773,0.188,1.507,0.365,2.197,0.532c0.702,0.25,1.323,0.442,1.9,0.681
					c0.565,0.254,1.093,0.46,1.55,0.693c0.917,0.466,1.608,0.869,2.059,1.179C119.195,145.54,119.44,145.697,119.44,145.697z"/>
			</g>
			<g>
				<path opacity="0.4" d="M214.906,293.293l-9.458-1.053c-8.05-7.278-17.308-18.59-18.873-33.052
					c0.806,0.521,1.609,1.015,2.41,1.495C195.623,280.541,214.906,293.293,214.906,293.293z"/>
				<path opacity="0.4" d="M287.338,308.096c40.152-17.137,40.045-48.196,40.022-49.471l-0.003-0.201c0-0.502-0.015-1-0.036-1.497
					c0.058,0.493,0.109,0.989,0.146,1.489l0.019,0.201c0.116,1.27,2.521,32.236-36.255,52.294
					c-15.27,7.897-29.725,12.401-42.966,13.383c-9.362,0.694-16.819-0.446-22.434-2.098l9.108-4.444
					c2.646,0.316,5.482,0.512,8.56,0.512C256.777,318.264,271.526,314.842,287.338,308.096z"/>
				<path opacity="0.4" d="M233.542,309.617l-8.962,3.579l-3.503-0.857c-8.417-2.063-15.475-6.9-20.482-11.472
					c0.149,0.007,0.262,0.012,0.332,0.014l9.255,0.341c2.21,1.226,4.576,2.292,7.088,3.109L233.542,309.617z"/>
				<polygon opacity="0.4" points="223.981,263.674 219.481,261.591 221.981,266.758 227.897,268.924 				"/>
			</g>
			<g>
				<path fill="#FFFFFF" d="M326.889,251.735c0.417,2.161,0.636,4.397,0.636,6.688l0.003,0.201
					c0.022,1.274,0.13,32.334-40.022,49.471c-15.812,6.746-30.561,10.168-43.838,10.168c-9.388,0-16.74-1.688-22.217-3.75
					l12.259-4.896l-16.271-5.286c-8.242-2.679-14.922-8.026-19.578-12.955c0.148,0.019,0.26,0.031,0.33,0.038l16.883,1.879
					c0,0-27.216-17.993-28.113-44.518c9.4,7.117,19.041,11.166,19.56,11.381l22.446,9.316l-7.066-8.439
					c1.88,0.719,3.598,1.307,4.999,1.699c2.37,0.666,4.791,1.004,7.197,1.004c6.456,0,16.194-2.52,25.924-14.523
					c4.614-5.691,17.713-17.914,24.838-15.289"/>
				<path d="M326.969,251.722c0.542,2.908,0.785,5.896,0.589,8.859c-0.239,2.96-0.81,5.888-1.648,8.734
					c-1.661,5.702-4.359,11.088-7.831,15.906c-1.74,2.407-3.674,4.672-5.748,6.797c-2.061,2.142-4.328,4.073-6.661,5.908
					c-2.34,1.832-4.823,3.47-7.357,5.018c-1.276,0.758-2.576,1.478-3.879,2.189c-1.331,0.656-2.632,1.379-3.989,1.979
					c-2.697,1.257-5.421,2.403-8.191,3.479c-2.771,1.06-5.557,2.082-8.391,2.967c-2.831,0.89-5.684,1.722-8.574,2.403
					c-2.889,0.689-5.805,1.271-8.742,1.729c-2.939,0.441-5.9,0.751-8.872,0.908c-1.488,0.087-2.966,0.113-4.47,0.111
					c-1.48-0.038-2.953-0.028-4.449-0.155c-2.986-0.162-5.94-0.563-8.868-1.144c-2.925-0.581-5.814-1.371-8.615-2.42l-1.23-0.46
					l1.221-0.492l12.247-4.926l0.033,1.021l-9.715-3.13l-4.857-1.565c-0.798-0.261-1.637-0.516-2.435-0.802
					c-0.8-0.262-1.616-0.597-2.421-0.918c-6.373-2.696-11.984-6.93-16.72-11.901l-1.21-1.27l1.757,0.19l17.21,1.864l-0.46,1.27
					c-0.975-0.655-1.882-1.334-2.794-2.035c-0.909-0.697-1.794-1.424-2.671-2.159c-1.747-1.479-3.436-3.026-5.059-4.641
					c-3.25-3.226-6.237-6.728-8.847-10.508c-2.605-3.779-4.836-7.85-6.426-12.186l-0.58-1.632l-0.502-1.658
					c-0.321-1.108-0.593-2.234-0.827-3.365l-0.317-1.706c-0.097-0.569-0.152-1.146-0.23-1.72c-0.178-1.145-0.19-2.307-0.283-3.46
					l-0.136-1.697l1.431,1.026l2.364,1.694c0.778,0.578,1.583,1.119,2.405,1.638c0.818,0.522,1.62,1.069,2.451,1.571l2.505,1.488
					c0.836,0.492,1.699,0.941,2.547,1.414c0.845,0.479,1.721,0.899,2.583,1.347c0.86,0.453,1.746,0.848,2.617,1.273
					c0.89,0.405,1.746,0.793,2.661,1.16c7.239,2.985,14.447,6.045,21.668,9.072l-0.85,1.157l-7.028-8.472l-1.641-1.977l2.415,0.891
					c1.428,0.526,2.853,1.068,4.298,1.499l0.54,0.173c0.138,0.047,0.359,0.093,0.534,0.14l1.117,0.279
					c0.739,0.152,1.453,0.284,2.194,0.389c0.744,0.073,1.486,0.188,2.236,0.193l1.108,0.039l1.151-0.023
					c1.469-0.073,2.973-0.28,4.435-0.601c1.472-0.302,2.896-0.802,4.303-1.333c1.386-0.588,2.761-1.22,4.054-2.003
					c0.662-0.366,1.294-0.781,1.921-1.206c0.642-0.402,1.236-0.873,1.845-1.325c1.204-0.921,2.361-1.907,3.456-2.962
					c0.564-0.51,1.093-1.057,1.615-1.61c0.529-0.547,1.058-1.096,1.545-1.683c0.999-1.134,1.977-2.348,3.039-3.473
					c2.111-2.256,4.382-4.351,6.769-6.303c2.395-1.938,4.915-3.745,7.661-5.167c1.376-0.7,2.813-1.3,4.32-1.67
					c1.503-0.347,3.121-0.44,4.599,0.104L284.828,234c-1.443-0.496-3.014-0.372-4.479,0c-1.469,0.395-2.871,1.015-4.213,1.736
					c-2.68,1.463-5.139,3.308-7.469,5.281c-2.324,1.983-4.525,4.117-6.567,6.383c-1.03,1.123-1.962,2.317-2.973,3.502
					c-0.485,0.603-1.013,1.169-1.543,1.733c-0.521,0.571-1.051,1.137-1.618,1.665c-1.1,1.093-2.267,2.12-3.485,3.082
					c-0.616,0.474-1.219,0.965-1.872,1.39c-0.638,0.446-1.282,0.884-1.959,1.272c-1.321,0.828-2.732,1.506-4.162,2.137
					c-1.452,0.576-2.928,1.119-4.462,1.459c-1.53,0.358-3.073,0.604-4.671,0.691l-1.151,0.034l-1.192-0.029
					c-0.787-0.001-1.567-0.11-2.351-0.183c-0.778-0.101-1.578-0.243-2.341-0.396l-1.119-0.269c-0.196-0.051-0.353-0.078-0.581-0.146
					l-0.559-0.173c-1.501-0.434-2.951-0.971-4.409-1.493l0.774-1.087l7.104,8.407l1.949,2.307l-2.799-1.149
					c-7.243-2.977-14.499-5.92-21.724-8.938c-0.902-0.361-1.829-0.781-2.721-1.188c-0.887-0.434-1.79-0.837-2.663-1.297
					c-0.875-0.455-1.766-0.882-2.624-1.369c-0.861-0.48-1.736-0.937-2.586-1.438l-2.544-1.512c-0.844-0.511-1.661-1.067-2.492-1.6
					c-0.834-0.527-1.654-1.077-2.448-1.667l-2.408-1.729l1.294-0.671c0.091,1.108,0.099,2.223,0.271,3.323
					c0.075,0.551,0.127,1.105,0.22,1.653l0.306,1.642c0.225,1.089,0.487,2.174,0.796,3.243l0.483,1.6l0.56,1.576
					c1.544,4.188,3.682,8.156,6.201,11.862c2.525,3.707,5.431,7.159,8.604,10.347c1.585,1.597,3.236,3.128,4.943,4.593
					c1.708,1.454,3.485,2.87,5.305,4.126l2.297,1.586l-2.757-0.315l-17.215-1.97l0.547-1.079c4.61,4.888,10.076,9.046,16.247,11.692
					c0.773,0.312,1.53,0.63,2.346,0.902c0.802,0.291,1.59,0.533,2.407,0.806l4.851,1.589l9.699,3.177l1.428,0.468l-1.395,0.553
					l-12.271,4.867l-0.01-0.952c2.74,1.041,5.575,1.831,8.451,2.417c2.873,0.585,5.798,0.996,8.723,1.168
					c1.453,0.133,2.943,0.132,4.42,0.177c1.456,0.009,2.938-0.01,4.405-0.089c2.94-0.141,5.874-0.434,8.791-0.856
					c2.914-0.438,5.809-1.005,8.682-1.67c2.876-0.657,5.716-1.467,8.536-2.332c2.823-0.861,5.604-1.861,8.367-2.897
					c2.756-1.048,5.497-2.182,8.174-3.408c1.354-0.588,2.648-1.297,3.976-1.939c1.298-0.699,2.594-1.405,3.866-2.149
					c2.525-1.521,5.003-3.13,7.337-4.935c2.328-1.806,4.592-3.708,6.65-5.821c2.072-2.096,4.007-4.331,5.751-6.71
					c3.479-4.762,6.195-10.096,7.883-15.754c0.853-2.824,1.439-5.734,1.696-8.673c0.213-2.942-0.007-5.905-0.529-8.814
					L326.969,251.722z"/>
			</g>
			<path opacity="0.15" d="M239.938,276.898c-1.833-1.33-3.215-3.281-5.042-4.619c21.393,4.611,26.39-4.316,41.326-17.789
				c-8.324,9.463-14.035,24.828-29.427,23.783c2.233,2.046,4.466,4.091,6.7,6.137c-22.836-5.102-36.591-15.74-36.591-15.74
				C224.213,272.558,231.972,274.689,239.938,276.898z"/>
			<g>
				<path d="M76.95,188.82c0,0,0.635-1.001,1.84-2.619c1.204-1.628,2.996-3.893,5.3-6.472c2.3-2.582,5.137-5.455,8.354-8.333
					c1.626-1.419,3.321-2.869,5.121-4.246c1.779-1.402,3.662-2.728,5.565-4.018c0.958-0.637,1.934-1.245,2.899-1.86
					c0.989-0.577,1.959-1.178,2.948-1.727c1.977-1.101,3.957-2.122,5.912-3.024c1.952-0.91,3.879-1.697,5.722-2.4
					c0.929-0.331,1.832-0.653,2.706-0.965c0.886-0.274,1.742-0.54,2.563-0.794c1.647-0.493,3.18-0.87,4.536-1.2
					c1.368-0.281,2.552-0.565,3.541-0.729c1.978-0.324,3.108-0.509,3.108-0.509s-1.125,0.21-3.094,0.578
					c-0.984,0.186-2.161,0.497-3.52,0.807c-1.346,0.359-2.866,0.769-4.497,1.296c-0.813,0.271-1.66,0.555-2.536,0.848
					c-0.863,0.33-1.755,0.67-2.672,1.021c-1.818,0.74-3.717,1.565-5.637,2.512c-1.922,0.94-3.865,1.997-5.802,3.132
					c-0.969,0.566-1.919,1.184-2.886,1.778c-0.944,0.631-1.898,1.256-2.833,1.908c-1.859,1.32-3.693,2.674-5.424,4.102
					c-1.75,1.402-3.396,2.875-4.973,4.313c-3.119,2.917-5.857,5.817-8.069,8.414c-2.216,2.594-3.93,4.862-5.073,6.481
					c-1.152,1.623-1.724,2.571-1.724,2.571L76.95,188.82z"/>
			</g>
			<g>
				<path opacity="0.2" d="M166.503,203.39c0.355-20.386,23.719-31.346,24.604-51.216c1.684,19.271-20.716,30.801-20.716,49.34
					c2.328-2.386,5.17-4.046,7.97-5.81c-2.837,11.28-7.802,27.151,2.676,36.133c-0.215-4.297-0.429-8.594-0.643-12.891
					c6.631,11.901,14.24,19.624,29.213,19.603c-9.11,1.16-19.341-1.439-25.571-8.479c0.247,2.507,0.495,5.015,0.743,7.522
					c-13.6-4.636-14.96-19.447-13.008-31.697c-1.669,2.402-2.378,5.642-3.37,8.355C167.488,210.67,166.278,207.135,166.503,203.39
					C166.517,202.605,166.457,204.166,166.503,203.39z"/>
				<path opacity="0.2" d="M77.597,189.138c-0.989-3.045-1.713-5.052-2.198-8.298c0.338-0.455,0.689-0.92,1.059-1.396
					c8.996-11.605,27.614-30.216,58.107-29.77l1.166,0.416c-0.331,0.074-0.646,0.162-0.973,0.238
					c-37.176,6.785-57.12,38.924-57.12,38.924l0.263-0.174c-1.184,1.834-0.857,1.074-0.29,0.202L77.597,189.138z"/>
				<path opacity="0.2" d="M87.565,144.758c12.875-9.375,30.251-0.021,30.251-0.021c-0.235-0.084-0.463-0.156-0.695-0.235
					c-1.302-0.646-2.666-1.186-4.104-1.581c-4.435-1.22-8.977-1.043-13.29,0.277c-4.509,1.145-8.189,3.521-11.188,6.5
					c-4.915,4.461-8.816,10.658-10.836,17.999c-0.631,2.294-1.03,4.583-1.246,6.845c-0.232,1.148-0.328,1.82-0.328,1.82
					S74.69,154.133,87.565,144.758z"/>
				<path opacity="0.2" d="M73.399,238.59c2.056-44.992,37.407-55.937,43.375-57.5c-4.75,1.834-11.626,8.989-15.943,15.378
					c-1.165,0.778-18.193,12.698-20.686,45.938c-1.432-2.904-3.107-7.027-2.913-10.141c0,0-1.833,6.324,2.619,16.878
					c-0.066,5.034,0.187,10.493,0.848,16.412c-1.593-1.768-3.369-4.075-3.967-6.123c0,0,0.01,5.999,4.663,11.503
					c1.369,9.336,3.566,21.738,7.17,33.28C80.389,291.563,72.032,268.506,73.399,238.59z"/>
				<g opacity="0.2">
					<path d="M104.458,223.9c-1.241-1.251-2.685-3.324-3.124-6.357c8.172-12.846,21.229-17.703,21.229-17.703
						c-1.027,0.34-2.063,1.063-3.093,2.051C115.554,204.904,108.792,211.559,104.458,223.9z"/>
					<path d="M100.482,218.219c-0.474,2.155-0.555,5.698,2.053,9.921c-3.604,10.534-5.035,23.819-0.807,39.654
						C91.583,244.982,94.245,228.994,100.482,218.219z"/>
				</g>
				<path opacity="0.2" d="M115.857,245.215c4.167-7.166,7.667-9.5,7.667-9.5l-1.697,5.816c0.011-0.049,0.019-0.1,0.029-0.148
					c0,0-3.999,8.082-4.833,15.25c0,0-5.458-7.625-7.251-18.594C112.287,243.92,115.857,245.215,115.857,245.215z"/>
				<path opacity="0.2" d="M86.75,143.614c12.111-21.087,32.344-38.452,57.408-40.575c21.906-0.938,38.416,11.234,45.799,31.328
					c-3.584-22.045-21.126-35.38-42.76-36.375C119.821,98.808,95.599,117.887,86.75,143.614z"/>
				<path opacity="0.2" d="M139.066,231.09c0,0-13.001,12.751-12.584,31.168c0,0-4.584-26.751,14-32.918L139.066,231.09z"/>
				<path opacity="0.2" d="M150.066,248.008c0,0-9.501,5.083-10.834,14.75c-1.333,9.666,2.084,13,2.084,13
					s-0.833-12.917,2.333-17.334L150.066,248.008z"/>
				<path opacity="0.2" d="M150.232,273.508c0,0-0.916-7.834,5.167-5.25c6.083,2.583,18.167,20.082,19.5,24.666l-0.583,0.084
					c0,0-9.666-14.168-16.75-19.334S150.232,273.508,150.232,273.508z"/>
			</g>
			<path fill="#1E1E35" d="M341.044,101.08c13.086,0,35.475,11.404,40.773,29.275l0.007,0.021
				c-0.007,1.396-0.262,21.164-9.057,28.23c-8.373,6.729-14.303,18.518-14.4,18.994c-0.007,0.004-0.058,0.105-0.135,0.261
				c-2.583,5.228-6.73,16.43-5.477,32.723c0.233,3.034,0.649,6.837,1.267,11.173c0.383,2.674,0.645,6.068,1.042,9.208
				c-4.25-1.542-8.208-5.375-8.208-5.375s-1.469,6.765-1.25,9.792c-8.084-4.188-9.813-16.543-9.813-16.543
				s-10.791,14.604-27.521,14.688c3.855-4.479,4.125-10.416,4.125-10.416s-6.188,5.125-14.354,5.563
				c-1.014,0.055-3.436-0.207-4.396-0.396c0.895-4.326,3.26-8.575,5.688-12.125c0.898-1.311,2.021-2.63,2.854-4.001
				c0.707-1.189,0.877-1.642,0.542-2.229c-0.26-0.458-0.583-0.416-1.375-0.416c-1.642,0-3.732,1.023-4.896,1.563
				c-1.098,0.509-2.74,1.494-3.832,2.02c-2.449,1.176-10.904,4.617-12.875,4.543c-0.445-0.02-1.68-0.261-1.771-0.396
				c-0.164-0.243-0.008-1.584,0.146-2.021c0.465-1.322,1.212-2.879,1.979-4.25c1.482-2.657,4.771-7.916,4.771-7.916
				s-7.248,6.959-13.313,6.959c-0.885,0-2.792,0.105-3.708-0.043c-0.493-0.065-3-0.75-3-0.75
				c19.696-24.9,30.559-58.691,34.241-71.934C307.257,111.911,319.804,101.08,341.044,101.08z"/>
			<g>
				<path fill="#CC001E" stroke="#000000" stroke-width="1.625" stroke-miterlimit="10" d="M369.017,185.972
					c-1.035-3.103-3.941-14.726,5.314-27.423l3.435,0.144c0,0-2.228,8.133,7.017,16.386c0.038,0.028,2.303,1.574,3.336,4.823
					c1.678,5.274-1.236,10.911-6.511,12.589c-4.999,1.59-10.315-0.949-12.287-5.707l-0.005,0.002c0,0-0.12-0.281-0.291-0.793
					c-0.002-0.004-0.004-0.009-0.006-0.014C369.019,185.977,369.019,185.975,369.017,185.972z"/>
				<path opacity="0.4" d="M381.607,192.49c-4.999,1.59-10.315-0.949-12.287-5.707l-0.005,0.002c0,0-0.12-0.281-0.291-0.793
					c-0.002-0.004-0.004-0.009-0.006-0.014c0-0.002,0-0.004-0.002-0.007c-1.035-3.103-3.941-14.726,5.314-27.423l3.435,0.144
					c0,0-0.058,0.214-0.116,0.602c-0.888,2.79-2.478,11.099,5.395,21.265c0.041,0.045,2.531,2.521,3.076,6.854
					c0.086,0.678,0.1,1.348,0.079,2.01C385.024,190.809,383.467,191.898,381.607,192.49z"/>
				<path fill="#E20016" stroke="#000000" stroke-width="1.625" stroke-miterlimit="10" d="M356.741,188.204
					c-0.061-4.188,0.908-19.502,17.135-31.405l4.136,1.51c0,0-5.876,9.061,2.201,22.723c0.034,0.049,2.197,2.816,2.197,7.183
					c0,7.089-5.747,12.835-12.835,12.835c-6.719,0-12.222-5.164-12.779-11.737l-0.006,0.002c0,0-0.038-0.391-0.049-1.081
					c0-0.006-0.001-0.013-0.001-0.019C356.74,188.211,356.741,188.207,356.741,188.204z"/>
				<path opacity="0.4" d="M373.876,156.799l0.07,0.025l-0.076-0.02c-14.947,13.477-14.369,28.81-13.889,32.971
					c0,0.003,0,0.006,0,0.01c0.001,0.006,0.002,0.012,0.003,0.018c0.08,0.686,0.157,1.07,0.157,1.07l0.006-0.002
					c0.965,5.143,4.939,9.08,9.877,10.155c-0.15,0.005-0.297,0.022-0.449,0.022c-6.719,0-12.222-5.164-12.779-11.737l-0.006,0.002
					c0,0-0.038-0.391-0.049-1.081c0-0.006-0.001-0.013-0.001-0.019c0-0.003,0.001-0.007,0.001-0.01
					C356.681,184.016,357.649,168.702,373.876,156.799z"/>
				<path fill="#FF8F8F" d="M380.16,188.026c0-4.151-1.886-6.89-2.263-7.396c-3.496-5.912-3.909-11.093-3.301-15.008
					c-0.205,3.937,0.626,9.207,4.293,15.411c0.385,0.519,2.146,3.077,2.146,6.992c0,5.091-3.068,9.478-7.452,11.409
					C377.526,197.141,380.16,192.867,380.16,188.026z"/>
			</g>
			<g>
				<path opacity="0.2" d="M378.049,137.008c-0.884,1.41-3.771,5.176-10.846,8.123c-8.875,3.697-7.899,6.736-7,8.203
					c0.044,0.07,0.112,0.148,0.175,0.225c-1.23-1.092-2.063-1.995-2.293-2.479c-0.737-1.558-1.613-4.985,7.605-7.669
					c7.348-2.14,10.623-5.561,11.652-6.863c2.392-3.641,4.436-6.251,4.436-6.251c0.002,0.001,0.005,0.002,0.008,0.003l0,0
					C381.786,130.299,380.035,133.121,378.049,137.008z"/>
				<path fill="#FAAF40" stroke="#000000" stroke-width="1.625" stroke-miterlimit="10" d="M367.481,144.84
					c7.074-2.889,9.963-6.582,10.846-7.964c1.986-3.81,3.737-6.577,3.737-6.577c26.375,4.875,27.292,24.375,27.292,24.375
					c-14.375-7-17.5,4.25-31.375,4.125c-0.572-0.006-1.072-0.074-1.539-0.172c-8.102-0.834-14.898-4.047-15.961-5.744
					C359.581,151.445,358.606,148.465,367.481,144.84z"/>
				<path fill="#FFFFFF" stroke="#000000" stroke-width="1.625" stroke-miterlimit="10" d="M401.731,152.414
					c-7.641-0.896-10.482-0.24-22.125,1.594c-11.643,1.833-12.721-1.98-12.721-1.98c-0.463-0.783-0.357-3.537,3.18-3.02
					c4.93,0.721,18.207,2.957,22.973,2.791C396.46,151.68,401.731,152.414,401.731,152.414z"/>
				<path d="M388.481,139.366c0,0-4.554-2.05-5.465-0.683c-0.91,1.365,3.131,5.065,3.131,5.065s-1.479-2.334-0.684-3.529
					C386.563,138.57,388.481,139.366,388.481,139.366z"/>
				<path d="M368.314,149.653l0.917,1.583c0,0,7.01,1.198,11.541,0.979c0,0-8.531,0.302-11.563-0.604l-1.354,1.469
					c0,0-1.188-0.906-0.969-2.031S368.314,149.653,368.314,149.653z"/>
				<path fill="#FFC94A" d="M407.753,152.795c-2.226-0.975-4.27-1.527-6.227-1.686c-0.746-0.099-5.078-0.645-7.983-0.541
					c-0.205,0.006-0.425,0.008-0.668,0.006c4.106-1.119,11.825-0.246,11.825-0.246l-0.352-0.999
					c-0.4-1.136-3.566-9.392-12.685-14.889C404.8,139.785,407.289,149.688,407.753,152.795z"/>
			</g>
			<g>
				<g opacity="0.2">
					<path d="M347.421,226.613c0,0,0.744,7.556,3.455,10.267c0,0-2.508-0.067-4.506-1.694c0,0,0-6.508,0.644-9.047L347.421,226.613z
						"/>
					<path d="M335.085,221.835c0,0-3.355,16.231-24.636,18.569c0,0,3.796-3.187,5.286-6.813
						C315.735,233.592,329.359,228.613,335.085,221.835z"/>
					<path d="M310.89,225.697c0,0-7.93,7.557-16.129,7.522c0,0-0.746-0.948,0.271-3.558
						C295.031,229.662,305.942,228.645,310.89,225.697z"/>
					<path d="M301.603,210.551c0,0-8.607,4.846-13.588,8.369c-4.98,3.524-8.742,2.711-9.115,2.135c0,0-1.354-1.389,0.068-2.643
						s5.15-0.439,10.232-3.287C294.284,212.279,300.247,209.568,301.603,210.551z"/>
					<path d="M280.66,207.771c0,0-9.149,7.047-17.757,3.185l1.39-2.067c0,0,3.22,1.661,6.98,1.254
						C275.034,209.736,280.66,207.771,280.66,207.771z"/>
				</g>
				<path d="M267.274,209.802c7.453,1.206,12.844-2.529,18.05-7.304c-1.745,2.892-3.499,5.771-5.144,8.719
					c-0.738,1.32-1.357,2.642-1.857,4.065c-0.461,1.307-0.643,2.123,0.95,2.192c2.128,0.094,4.368-0.826,6.311-1.591
					c3.704-1.458,7.241-3.298,10.85-4.971c1.728-0.8,8.77-3.55,5.954,1.19c-3.164,5.198-7.486,9.899-8.617,16.105
					c6.578,1.482,13.45-1.656,18.731-5.279c0.058,4.149-1.546,7.255-4.104,10.523c10.928,0.029,20.602-6.678,27.416-14.725
					c1.356,6.705,3.488,12.856,9.742,16.504c-0.439-3.254,0.406-6.803,1.224-9.927c2.542,2.688,5.384,4.526,8.868,5.832
					c-2.933-0.837-6.197-2.125-8.405-4.313c-0.63,3.768-0.587,7.158,0.267,10.844c-6.806-2.389-11.245-8.47-12.617-15.445
					c-4.354,4.676-9.808,8.577-15.815,10.826c-4.436,1.998-9.362,2.003-14.112,1.99c2.348-2.687,4.865-5.563,5.828-9.076
					c-5.448,3.23-11.634,4.923-17.916,3.695c-1.515-0.295-0.684-1.936-0.314-3.229c0.716-2.512,1.883-4.984,3.203-7.232
					c1.646-2.8,4.211-5.496,5.546-8.462c-3.603,0.604-7.237,3.099-10.521,4.623c-3.527,1.638-8.234,4.286-12.285,3.649
					c-4.865-0.775,0.179-8.75,1.577-10.732c-4.912,2.541-9.866,2.598-15.06,1.014C265.774,209.455,266.509,209.699,267.274,209.802z
					"/>
			</g>
			<g>
				<circle fill="#1E1E35" cx="342.061" cy="129.295" r="17.5"/>
				<circle cx="342.061" cy="129.295" r="11.135"/>
				
					<radialGradient id="SVGID_8_" cx="1584.877" cy="129.2949" r="9.9927" gradientTransform="matrix(-1 0 0 1 1926.9375 0)" gradientUnits="userSpaceOnUse">
					<stop  offset="0" style="stop-color:#FFD37B"/>
					<stop  offset="0.1903" style="stop-color:#FFCD6D"/>
					<stop  offset="0.5513" style="stop-color:#FFBC47"/>
					<stop  offset="1" style="stop-color:#FFA311"/>
				</radialGradient>
				<circle fill="url(#SVGID_8_)" cx="342.061" cy="129.295" r="9.993"/>
				<g>
					<circle cx="342.06" cy="129.295" r="5.615"/>
					<path fill="#FFFFFF" d="M338.354,126.16c-1.022,1.022-1.08,2.621-0.129,3.572c0.951,0.952,2.241,0.585,3.264-0.438
						c1.021-1.021,1.39-2.312,0.438-3.264C340.976,125.08,339.376,125.138,338.354,126.16z"/>
				</g>
				<path fill="#1E1E35" d="M342.966,115.461c7.844,1.141,13.279,8.426,12.139,16.269c-0.146,1.006-0.396,1.971-0.732,2.888
					l-25.236-13.152C332.146,117.154,337.409,114.654,342.966,115.461z"/>
				<path d="M353.044,131.924c0.336-0.918,0.586-1.883,0.732-2.889c0.4-2.748,0.443-4.621-0.592-6.993
					c1.885,2.841,2.784,6.351,2.256,9.989c-0.146,1.006-0.396,1.971-0.732,2.888l-24.557-12.798L353.044,131.924z"/>
				<g>
					<path d="M344.346,140.738c0,0-0.84,0.412-2.204,0.709c-0.681,0.143-1.487,0.285-2.364,0.32
						c-0.875,0.063-1.815,0.005-2.751-0.106c-0.463-0.098-0.932-0.152-1.379-0.289c-0.449-0.126-0.891-0.249-1.297-0.435
						c-0.411-0.167-0.807-0.333-1.15-0.556c-0.349-0.21-0.691-0.383-0.957-0.623c-0.278-0.219-0.525-0.427-0.741-0.61
						c-0.2-0.204-0.359-0.398-0.494-0.55c-0.259-0.311-0.406-0.488-0.406-0.488s0.195,0.124,0.538,0.339
						c0.165,0.109,0.364,0.242,0.594,0.394c0.242,0.127,0.516,0.271,0.813,0.428c0.282,0.176,0.637,0.28,0.979,0.439
						c0.341,0.166,0.731,0.265,1.121,0.398c0.384,0.151,0.813,0.208,1.229,0.326c0.416,0.118,0.861,0.154,1.293,0.238
						c0.438,0.059,0.878,0.114,1.313,0.148c0.437,0.013,0.865,0.076,1.285,0.069c0.837,0.038,1.622,0.004,2.301-0.008
						C343.422,140.824,344.346,140.738,344.346,140.738z"/>
				</g>
			</g>
			<circle cx="369.771" cy="189.865" r="8.396"/>
			
				<radialGradient id="SVGID_9_" cx="1557.168" cy="189.3647" r="6.851" gradientTransform="matrix(-1 0 0 1 1926.9375 0)" gradientUnits="userSpaceOnUse">
				<stop  offset="0" style="stop-color:#FEF5C6"/>
				<stop  offset="0.0809" style="stop-color:#FEF4C1"/>
				<stop  offset="0.1791" style="stop-color:#FEF2B2"/>
				<stop  offset="0.2862" style="stop-color:#FEED9A"/>
				<stop  offset="0.3989" style="stop-color:#FEE778"/>
				<stop  offset="0.5" style="stop-color:#FDE153"/>
				<stop  offset="1" style="stop-color:#E5B539"/>
			</radialGradient>
			<polygon fill-rule="evenodd" clip-rule="evenodd" fill="url(#SVGID_9_)" points="369.771,192.53 374.109,196.042 372.11,190.83 
				376.791,187.788 371.217,188.079 369.771,182.688 368.324,188.079 362.749,187.788 367.43,190.83 365.431,196.042 			"/>
		</g>
	</g>
</switch>
</svg>
