<svg height="512pt" viewBox="0 0 512 512.08894" width="512pt" xmlns="http://www.w3.org/2000/svg">
<path fill="white" d="m494.976562 426.753906v-110.929687h8.535157c3.804687 0 7.152343-2.523438 8.203125-6.183594 1.046875-3.660156-.453125-7.570313-3.679688-9.589844l-67.414062-42.152343-33.441406-33.441407c-1.609376-1.609375-3.792969-2.511719-6.070313-2.5v-81.484375c17.339844-1.105468 34.652344-2.398437 51.9375-3.882812 3.566406-.292969 6.574219-2.785156 7.527344-6.234375s-.351563-7.128907-3.261719-9.210938l-9.21875-6.574219c-15.445312-11.039062-28.925781-24.597656-39.882812-40.105468-6.453126-9.144532-11.976563-18.90625-16.488282-29.148438 7.476563-6.054687 10.910156-15.796875 8.882813-25.199218-2.03125-9.402344-9.179688-16.859376-18.484375-19.289063-9.304688-2.429687-19.1875.585937-25.554688 7.792969h-201.042968c-6.394532-7.101563-16.21875-10.03125-25.457032-7.59375-9.238281 2.4375-16.339844 9.835937-18.398437 19.164062-2.054688 9.332032 1.277343 19.027344 8.636719 25.125-12.203126 27.714844-31.632813 51.636719-56.261719 69.253906l-9.222657 6.574219c-2.914062 2.082031-4.214843 5.761719-3.261718 9.210938s3.960937 5.941406 7.527344 6.234375c17.277343 1.5 34.589843 2.792968 51.933593 3.882812v82.59375c-4.164062 1.148438-7.960937 3.351563-11.03125 6.390625l-1.578125 1.578125c-17.65625 17.65625-37.882812 32.539063-59.992187 44.144532l-31.28125 16.390624c-5.3125 2.652344-8.101563 8.605469-6.742188 14.386719 1.359375 5.777344 6.515625 9.859375 12.449219 9.867188h4.265625v110.929687c-9.425781 0-17.0664062 7.644532-17.0664062 17.070313v51.199219c0 9.425781 7.6406252 17.066406 17.0664062 17.066406h477.867187c9.425782 0 17.066407-7.640625 17.066407-17.066406v-51.199219c0-9.425781-7.640625-17.070313-17.066407-17.070313zm-17.066406 0h-17.066406v-110.929687h17.066406zm-42.664062 0v-76.796875c0-4.714843-3.820313-8.535156-8.535156-8.535156h-51.199219c-4.714844 0-8.535157 3.820313-8.535157 8.535156v76.796875h-8.53125v-110.929687h85.332032v110.929687zm-17.066406 0h-34.136719v-68.265625h34.136719zm-93.867188 34.136719h-136.535156v-17.066406h136.535156zm-179.203125-34.136719v-76.796875c0-4.714843-3.820313-8.535156-8.53125-8.535156h-51.199219c-4.714844 0-8.535156 3.820313-8.535156 8.535156v76.796875h-8.53125v-110.929687h85.332031v110.929687zm-17.066406 0h-34.132813v-68.265625h34.132813zm42.667969-110.929687h17.066406v110.929687h-17.066406zm136.535156 0v110.929687h-17.066406v-76.796875c0-4.714843-3.824219-8.535156-8.535157-8.535156h-51.199219c-4.714843 0-8.535156 3.820313-8.535156 8.535156v76.796875h-17.066406v-110.929687zm-34.136719 110.929687h-34.132813v-68.265625h34.132813zm59.734375 0h-8.53125v-110.929687h17.066406v110.929687zm0-204.796875v-17.066406h17.066406v17.066406zm-34.132812 0v-17.066406h17.066406v17.066406zm-34.132813 0v-17.066406h17.066406v17.066406zm-34.132813 0v-17.066406h17.066407v17.066406zm-34.132812 0v-17.066406h17.066406v17.066406zm-34.132812 0v-17.066406h17.066406v17.066406zm-34.136719 0v-80.566406c5.691406.324219 11.375.648437 17.066406.933594v79.632812zm80.617187-170.667969c-4.941406 15.964844-13.382812 37.921876-24.339844 66.347657l-3.496093 9.078125c-13.039063-.425782-26.066407-.976563-39.082031-1.648438 18.402343-21.796875 32.617187-46.808594 41.921874-73.777344zm76.933594 0c4.882812 17.066407 14.074219 40.882813 26.25 72.480469l1.332031 3.464844c-16.195312.410156-32.394531.652344-48.597656.726563v-76.671876zm42.832031 0c9.316407 26.96875 23.546875 51.984376 41.964844 73.777344-13.015625.660156-26.042969 1.210938-39.082031 1.648438l-3.5-9.078125c-10.957032-28.425781-19.394532-50.347657-24.335938-66.347657zm21.484375 136.535157h-187.730468v-44.683594c7.867187.324219 15.742187.523437 23.609374.761719.265626 0 .53125.152344.792969.152344.265625 0 .4375-.085938.667969-.101563 22.84375.691406 45.710938 1.160156 68.574219 1.160156h.21875.222656c22.863281 0 45.730469-.46875 68.574219-1.160156.230468 0 .445312.101563.664062.101563.222656 0 .53125-.128907.796875-.152344 7.867188-.238282 15.742188-.4375 23.609375-.761719zm-102.398437-59.863281c-16.207031-.0625-32.40625-.304688-48.597657-.726563l1.332032-3.464844c12.175781-31.570312 21.332031-55.464843 26.246094-72.480469h21.019531zm119.464843 14.363281c5.691407-.285157 11.375-.609375 17.066407-.933594v80.566406h-17.066407zm61.945313-20.882813c-12.339844.945313-24.746094 1.707032-37.078125 2.484375-19.601562-21.117187-35.007812-45.765625-45.398438-72.636719h29.296876c5.023437 11.605469 11.21875 22.667969 18.492187 33.015626 9.828125 13.890624 21.496094 26.386718 34.6875 37.136718zm-53.410156-104.285156c4.710937 0 8.53125 3.820312 8.53125 8.53125 0 4.714844-3.820313 8.535156-8.53125 8.535156-4.714844 0-8.535157-3.820312-8.535157-8.535156 0-4.710938 3.820313-8.53125 8.535157-8.53125zm-25.601563 8.53125c.027344 2.914062.558594 5.800781 1.570313 8.535156h-190.871094c1.007813-2.734375 1.539063-5.621094 1.570313-8.535156zm-213.332031-8.53125c4.710937 0 8.53125 3.820312 8.53125 8.53125 0 4.714844-3.820313 8.535156-8.53125 8.535156-4.714844 0-8.535156-3.820312-8.535156-8.535156 0-4.710938 3.820312-8.53125 8.535156-8.53125zm-.257813 34.132812h29.320313c-10.390625 26.871094-25.796875 51.519532-45.394531 72.636719-12.367188-.742187-24.746094-1.539062-37.078125-2.484375 23.082031-18.789062 41.3125-42.847656 53.152343-70.152344zm-90.015624 238.992188c23.636718-12.394531 45.257812-28.304688 64.128906-47.179688l1.578125-1.578124c1.601562-1.601563 3.773437-2.503907 6.039062-2.5h279.527344l31.632813 31.632812c.453124.457031.960937.863281 1.511718 1.203125l43.03125 26.894531h-443.585937zm-12.125 25.542969h17.066406v110.929687h-17.066406zm-17.070313 128h153.601563v17.066406c-9.425782 0-17.066407 7.640625-17.066407 17.066406v17.066407h-136.535156zm153.601563 51.199219v-17.066407h170.667968v17.066407zm187.734374 0v-17.066407c0-9.425781-7.640624-17.066406-17.066406-17.066406v-17.066406h153.597656v51.199219zm0 0"/></svg>