<svg height="512pt" viewBox="0 -103 512.001 512" width="512pt" xmlns="http://www.w3.org/2000/svg"><path fill="white" d="m242.640625 166.910156-37.976563-10.117187-21.363281-32.992188c-2.957031-4.566406-9.648437-4.5625-12.601562 0l-21.363281 32.992188-37.976563 10.117187c-5.257813 1.402344-7.324219 7.769532-3.894531 11.988282l24.773437 30.511718-2.109375 39.246094c-.289062 5.414062 5.105469 9.371094 10.199219 7.410156l36.671875-14.136718c38.976562 14.835937 36.878906 14.636718 39.375 14.636718 4.3125 0 7.726562-3.625 7.496094-7.910156l-2.109375-39.246094 24.777343-30.511718c3.425782-4.21875 1.359376-10.585938-3.898437-11.988282zm-34.359375 35.28125c-1.175781 1.445313-1.769531 3.277344-1.671875 5.136719l1.644531 30.554687c-28.140625-10.199218-29.261718-12.816406-33.953125-11.003906l-28.550781 11.003906c1-29.914062 3.148438-31.78125-.027344-35.691406l-19.289062-23.753906c28.757812-8.289062 31.203125-6.832031 33.9375-11.054688l16.628906-25.6875c16.773438 24.792969 16.132812 27.5625 21 28.863282l29.570312 7.878906zm0 0"/><path fill="white" d="m494.617188 192.4375h-57.277344c-9.585938 0-17.382813 7.800781-17.382813 17.386719v8.140625h-16.519531c-5.058594 0-9.175781-4.117188-9.175781-9.175782v-34.234374c0-13.339844-10.851563-24.191407-24.191407-24.191407h-14.183593v-11.011719c0-12.699218-10.328125-23.027343-23.023438-23.027343h-12.015625v-31.136719h7.863282c14.984374 0 27.175781-12.191406 27.175781-27.175781v-30.835938c0-14.984375-12.191407-27.175781-27.175781-27.175781h-30.050782c-4.148437 0-7.507812 3.359375-7.507812 7.507812 0 4.148438 3.359375 7.507813 7.507812 7.507813h30.050782c6.707031 0 12.160156 5.457031 12.160156 12.160156v30.835938c0 6.707031-5.457032 12.160156-12.160156 12.160156h-301.535157c-6.707031 0-12.160156-5.453125-12.160156-12.160156v-30.835938c0-6.703125 5.457031-12.160156 12.160156-12.160156h243.453125c4.144532 0 7.507813-3.359375 7.507813-7.507813 0-4.148437-3.363281-7.507812-7.507813-7.507812h-243.453125c-14.984375 0-27.175781 12.191406-27.175781 27.175781v30.835938c0 14.984375 12.191406 27.175781 27.175781 27.175781h5.976563v134.589844c0 4.148437 3.363281 7.507812 7.507812 7.507812 4.148438 0 7.507813-3.359375 7.507813-7.507812v-134.589844h257.664062v183.160156c0 12.90625-10.5 23.40625-23.402343 23.40625h-210.855469c-12.90625 0-23.40625-10.5-23.40625-23.40625v-20.539062c0-4.148438-3.359375-7.507813-7.507813-7.507813-4.144531 0-7.507812 3.359375-7.507812 7.507813v20.539062c0 21.1875 17.234375 38.421875 38.421875 38.421875h210.855469c21.183593 0 38.417968-17.234375 38.417968-38.421875v-68.929687h12.015625c12.695313 0 23.023438-10.328125 23.023438-23.027344v-11.011719h14.183593c5.058594 0 9.175782 4.117188 9.175782 9.175782v34.234374c0 13.339844 10.851562 24.191407 24.195312 24.191407h16.515625v8.140625c0 9.585937 7.800781 17.386718 17.382813 17.386718h57.277344c9.585937 0 17.382812-7.800781 17.382812-17.386718v-31.296875c0-9.585938-7.796875-17.386719-17.382812-17.386719zm-153.746094-16.046875c0 4.417969-3.59375 8.007813-8.007813 8.007813h-12.015625v-53.054688h12.015625c4.414063 0 8.007813 3.589844 8.007813 8.007812zm156.113281 64.730469c0 1.304687-1.0625 2.367187-2.367187 2.367187h-57.277344c-1.304688 0-2.367188-1.0625-2.367188-2.367187v-31.296875c0-1.308594 1.0625-2.367188 2.367188-2.367188h57.277344c1.304687 0 2.367187 1.0625 2.367187 2.367188zm0 0"/></svg>